<svg width="1440" height="734" viewBox="0 0 1440 734" fill="none" xmlns="http://www.w3.org/2000/svg">
<circle cx="1327.68" cy="30.3077" r="6.30769" fill="#BEBEBE"/>
<circle cx="1327.68" cy="55.5385" r="6.30769" fill="#BEBEBE"/>
<circle cx="1327.68" cy="156.462" r="6.30769" fill="#BEBEBE"/>
<circle cx="1327.68" cy="181.692" r="6.30769" fill="#BEBEBE"/>
<circle cx="1299.92" cy="55.5385" r="6.30769" fill="#BEBEBE"/>
<circle cx="1299.92" cy="156.462" r="6.30769" fill="#BEBEBE"/>
<circle cx="1299.92" cy="80.7692" r="6.30769" fill="#BEBEBE"/>
<circle cx="1299.92" cy="131.231" r="6.30769" fill="#BEBEBE"/>
<circle cx="1274.69" cy="80.7692" r="6.30769" fill="#BEBEBE"/>
<circle cx="1274.69" cy="106" r="6.30769" fill="#BEBEBE"/>
<circle cx="1274.69" cy="131.231" r="6.30769" fill="#BEBEBE"/>
<circle cx="1355.43" cy="30.3077" r="6.30769" fill="#BEBEBE"/>
<circle cx="1355.43" cy="181.692" r="6.30769" fill="#BEBEBE"/>
<circle cx="1383.18" cy="30.3077" r="6.30769" fill="#BEBEBE"/>
<circle cx="1383.18" cy="55.5385" r="6.30769" fill="#BEBEBE"/>
<circle cx="1383.18" cy="156.462" r="6.30769" fill="#BEBEBE"/>
<circle cx="1383.18" cy="181.692" r="6.30769" fill="#BEBEBE"/>
<circle cx="1410.94" cy="55.5385" r="6.30769" fill="#BEBEBE"/>
<circle cx="1410.94" cy="156.462" r="6.30769" fill="#BEBEBE"/>
<circle cx="1410.94" cy="80.7692" r="6.30769" fill="#BEBEBE"/>
<circle cx="1410.94" cy="131.231" r="6.30769" fill="#BEBEBE"/>
<circle cx="1438.69" cy="80.7692" r="6.30769" fill="#BEBEBE"/>
<circle cx="1438.69" cy="106" r="6.30769" fill="#BEBEBE"/>
<circle cx="1438.69" cy="131.231" r="6.30769" fill="#BEBEBE"/>
<circle cx="548.929" cy="407.929" r="3.92857" fill="#BEBEBE"/>
<circle cx="548.929" cy="423.643" r="3.92857" fill="#BEBEBE"/>
<circle cx="548.929" cy="486.5" r="3.92857" fill="#BEBEBE"/>
<circle cx="548.929" cy="502.214" r="3.92857" fill="#BEBEBE"/>
<circle cx="531.643" cy="423.643" r="3.92857" fill="#BEBEBE"/>
<circle cx="531.643" cy="486.5" r="3.92857" fill="#BEBEBE"/>
<circle cx="531.643" cy="439.357" r="3.92857" fill="#BEBEBE"/>
<circle cx="531.643" cy="470.786" r="3.92857" fill="#BEBEBE"/>
<circle cx="515.929" cy="439.357" r="3.92857" fill="#BEBEBE"/>
<circle cx="515.929" cy="455.071" r="3.92857" fill="#BEBEBE"/>
<circle cx="515.929" cy="470.786" r="3.92857" fill="#BEBEBE"/>
<circle cx="566.214" cy="407.929" r="3.92857" fill="#BEBEBE"/>
<circle cx="566.214" cy="502.214" r="3.92857" fill="#BEBEBE"/>
<circle cx="583.5" cy="407.929" r="3.92857" fill="#BEBEBE"/>
<circle cx="583.5" cy="423.643" r="3.92857" fill="#BEBEBE"/>
<circle cx="583.5" cy="486.5" r="3.92857" fill="#BEBEBE"/>
<circle cx="583.5" cy="502.214" r="3.92857" fill="#BEBEBE"/>
<circle cx="600.786" cy="423.643" r="3.92857" fill="#BEBEBE"/>
<circle cx="600.786" cy="486.5" r="3.92857" fill="#BEBEBE"/>
<circle cx="600.786" cy="439.357" r="3.92857" fill="#BEBEBE"/>
<circle cx="600.786" cy="470.786" r="3.92857" fill="#BEBEBE"/>
<circle cx="618.071" cy="439.357" r="3.92857" fill="#BEBEBE"/>
<circle cx="618.071" cy="455.071" r="3.92857" fill="#BEBEBE"/>
<circle cx="618.071" cy="470.786" r="3.92857" fill="#BEBEBE"/>
<circle cx="412.179" cy="55.6786" r="2.67857" fill="#BEBEBE"/>
<circle cx="412.179" cy="66.3929" r="2.67857" fill="#BEBEBE"/>
<circle cx="412.179" cy="109.25" r="2.67857" fill="#BEBEBE"/>
<circle cx="412.179" cy="119.964" r="2.67857" fill="#BEBEBE"/>
<circle cx="400.393" cy="66.3929" r="2.67857" fill="#BEBEBE"/>
<circle cx="400.393" cy="109.25" r="2.67857" fill="#BEBEBE"/>
<circle cx="400.393" cy="77.1071" r="2.67857" fill="#BEBEBE"/>
<circle cx="400.393" cy="98.5357" r="2.67857" fill="#BEBEBE"/>
<circle cx="389.679" cy="77.1071" r="2.67857" fill="#BEBEBE"/>
<circle cx="389.679" cy="87.8214" r="2.67857" fill="#BEBEBE"/>
<circle cx="389.679" cy="98.5357" r="2.67857" fill="#BEBEBE"/>
<circle cx="423.964" cy="55.6786" r="2.67857" fill="#BEBEBE"/>
<circle cx="423.964" cy="119.964" r="2.67857" fill="#BEBEBE"/>
<circle cx="435.75" cy="55.6786" r="2.67857" fill="#BEBEBE"/>
<circle cx="435.75" cy="66.3929" r="2.67857" fill="#BEBEBE"/>
<circle cx="435.75" cy="109.25" r="2.67857" fill="#BEBEBE"/>
<circle cx="435.75" cy="119.964" r="2.67857" fill="#BEBEBE"/>
<circle cx="447.536" cy="66.3929" r="2.67857" fill="#BEBEBE"/>
<circle cx="447.536" cy="109.25" r="2.67857" fill="#BEBEBE"/>
<circle cx="447.536" cy="77.1071" r="2.67857" fill="#BEBEBE"/>
<circle cx="447.536" cy="98.5357" r="2.67857" fill="#BEBEBE"/>
<circle cx="459.321" cy="77.1071" r="2.67857" fill="#BEBEBE"/>
<circle cx="459.321" cy="87.8214" r="2.67857" fill="#BEBEBE"/>
<circle cx="459.321" cy="98.5357" r="2.67857" fill="#BEBEBE"/>
<circle cx="2.1169" cy="18.0337" r="2.03371" fill="#BEBEBE"/>
<circle cx="2.1169" cy="26.1686" r="2.03371" fill="#BEBEBE"/>
<circle cx="2.1169" cy="58.708" r="2.03371" fill="#BEBEBE"/>
<circle cx="2.1169" cy="66.8429" r="2.03371" fill="#BEBEBE"/>
<circle cx="11.0653" cy="18.0337" r="2.03371" fill="#BEBEBE"/>
<circle cx="11.0653" cy="66.8429" r="2.03371" fill="#BEBEBE"/>
<circle cx="20.0136" cy="18.0337" r="2.03371" fill="#BEBEBE"/>
<circle cx="20.0136" cy="26.1686" r="2.03371" fill="#BEBEBE"/>
<circle cx="20.0136" cy="58.708" r="2.03371" fill="#BEBEBE"/>
<circle cx="20.0136" cy="66.8429" r="2.03371" fill="#BEBEBE"/>
<circle cx="28.9619" cy="26.1686" r="2.03371" fill="#BEBEBE"/>
<circle cx="28.9619" cy="58.708" r="2.03371" fill="#BEBEBE"/>
<circle cx="28.9619" cy="34.3034" r="2.03371" fill="#BEBEBE"/>
<circle cx="28.9619" cy="50.5731" r="2.03371" fill="#BEBEBE"/>
<circle cx="37.9102" cy="34.3034" r="2.03371" fill="#BEBEBE"/>
<circle cx="37.9102" cy="42.4383" r="2.03371" fill="#BEBEBE"/>
<circle cx="37.9102" cy="50.5731" r="2.03371" fill="#BEBEBE"/>
<circle cx="13.1286" cy="611.357" r="4.35714" fill="#BEBEBE"/>
<circle cx="13.1286" cy="715.929" r="4.35714" fill="#BEBEBE"/>
<circle cx="32.3" cy="611.357" r="4.35714" fill="#BEBEBE"/>
<circle cx="32.3" cy="628.786" r="4.35714" fill="#BEBEBE"/>
<circle cx="32.3" cy="698.5" r="4.35714" fill="#BEBEBE"/>
<circle cx="32.3" cy="715.929" r="4.35714" fill="#BEBEBE"/>
<circle cx="51.4715" cy="628.786" r="4.35714" fill="#BEBEBE"/>
<circle cx="51.4715" cy="698.5" r="4.35714" fill="#BEBEBE"/>
<circle cx="51.4715" cy="646.214" r="4.35714" fill="#BEBEBE"/>
<circle cx="51.4715" cy="681.071" r="4.35714" fill="#BEBEBE"/>
<circle cx="70.6429" cy="646.214" r="4.35714" fill="#BEBEBE"/>
<circle cx="70.6429" cy="663.643" r="4.35714" fill="#BEBEBE"/>
<circle cx="70.6429" cy="681.071" r="4.35714" fill="#BEBEBE"/>
</svg>
