<svg width="782" height="552" viewBox="0 0 782 552" fill="none" xmlns="http://www.w3.org/2000/svg">
<path fill-rule="evenodd" clip-rule="evenodd" d="M18.8786 393C8.45233 411.059 14.6397 434.151 32.6987 444.577C50.7576 455.003 73.8494 448.816 84.2757 430.757L18.8786 393Z" fill="#108AFA"/>
<path fill-rule="evenodd" clip-rule="evenodd" d="M46 422L61 400L65.1311 402.817L50.1311 424.817L46 422Z" fill="#FFB800"/>
<path fill-rule="evenodd" clip-rule="evenodd" d="M601 18.8857C607.022 8.4554 620.359 4.88173 630.789 10.9036C641.22 16.9256 644.793 30.2627 638.771 40.6929L601 18.8857Z" fill="#FFB800"/>
<path fill-rule="evenodd" clip-rule="evenodd" d="M612.227 34.5507L619.292 22.9591L622.708 25.041L615.642 36.6326L612.227 34.5507Z" fill="#108AFA"/>
<path opacity="0.1" d="M442.635 395.324H464.335L496.203 446.908V395.324H518.151V482H496.575L464.583 430.292V482H442.635V395.324Z" fill="white"/>
<path opacity="0.1" d="M401.18 483.86C391.756 483.86 383.448 482.041 376.256 478.404C369.147 474.767 363.649 469.559 359.764 462.78C355.879 455.919 353.936 447.9 353.936 438.724C353.936 429.548 355.879 421.571 359.764 414.792C363.649 407.931 369.147 402.681 376.256 399.044C383.448 395.324 391.756 393.464 401.18 393.464C407.463 393.464 413.001 394.084 417.796 395.324C422.673 396.481 427.179 398.383 431.312 401.028V421.86C427.675 418.967 423.541 416.9 418.912 415.66C414.365 414.337 409.116 413.676 403.164 413.676C398.039 413.676 393.451 414.709 389.4 416.776C385.432 418.76 382.291 421.653 379.976 425.456C377.661 429.259 376.504 433.681 376.504 438.724C376.504 446.577 378.777 452.777 383.324 457.324C387.953 461.871 394.195 464.144 402.048 464.144C406.429 464.144 410.108 463.4 413.084 461.912V448.024H399.816V432.648H433.916V475.8C425.071 481.173 414.159 483.86 401.18 483.86Z" fill="white"/>
<path opacity="0.1" d="M323.357 395.324H345.305V482H323.357V395.324Z" fill="white"/>
<path opacity="0.1" d="M279.792 483.86C274.336 483.86 268.921 483.323 263.548 482.248C258.174 481.256 253.752 479.851 250.28 478.032V458.316C254.744 460.631 259.373 462.367 264.168 463.524C269.045 464.681 273.674 465.26 278.056 465.26C282.106 465.26 285.165 464.64 287.232 463.4C289.298 462.16 290.332 460.383 290.332 458.068C290.332 456.332 289.753 454.844 288.596 453.604C287.521 452.281 285.909 451.083 283.76 450.008C281.61 448.933 278.262 447.445 273.716 445.544C265.697 442.155 259.869 438.393 256.232 434.26C252.594 430.127 250.776 425.043 250.776 419.008C250.776 414.048 252.14 409.625 254.868 405.74C257.678 401.855 261.564 398.837 266.524 396.688C271.484 394.539 277.188 393.464 283.636 393.464C288.926 393.464 293.638 393.877 297.772 394.704C301.905 395.531 305.873 396.853 309.676 398.672V417.892C302.401 414.089 295.085 412.188 287.728 412.188C283.76 412.188 280.577 412.849 278.18 414.172C275.865 415.412 274.708 417.231 274.708 419.628C274.708 422.025 275.906 423.968 278.304 425.456C280.701 426.944 285.124 428.969 291.572 431.532C297.441 433.929 301.988 436.285 305.212 438.6C308.518 440.915 310.916 443.601 312.404 446.66C313.892 449.719 314.636 453.604 314.636 458.316C314.636 466.335 311.701 472.617 305.832 477.164C300.045 481.628 291.365 483.86 279.792 483.86Z" fill="white"/>
<path opacity="0.1" d="M182.525 395.324H244.029V413.8H204.473V430.044H233.365V447.28H204.473V463.524H244.029V482H182.525V395.324Z" fill="white"/>
<path opacity="0.1" d="M95.58 395.324H126.704C136.211 395.324 144.519 397.06 151.628 400.532C158.737 404.004 164.193 409.005 167.996 415.536C171.881 421.984 173.824 429.548 173.824 438.228C173.824 452.612 169.608 463.524 161.176 470.964C152.744 478.321 141.047 482 126.084 482H95.58V395.324ZM127.944 463.524C135.467 463.524 141.212 461.251 145.18 456.704C149.231 452.157 151.256 445.999 151.256 438.228C151.256 431.119 149.231 425.291 145.18 420.744C141.212 416.115 135.715 413.8 128.688 413.8H117.528V463.524H127.944Z" fill="white"/>
<path opacity="0.1" d="M462.252 313.324H484.2V400H462.252V313.324Z" fill="white"/>
<path opacity="0.1" d="M412.423 401.86C399.362 401.86 389.525 398.388 382.911 391.444C376.298 384.417 372.991 375.159 372.991 363.668V313.324H394.939V363.916C394.939 369.703 396.469 374.084 399.527 377.06C402.669 380.036 406.967 381.524 412.423 381.524C417.879 381.524 422.137 380.036 425.195 377.06C428.254 374.084 429.783 369.703 429.783 363.916V313.324H451.731V363.668C451.731 375.241 448.425 384.5 441.811 391.444C435.281 398.388 425.485 401.86 412.423 401.86Z" fill="white"/>
<path opacity="0.1" d="M304.55 401.86C294.961 401.86 287.231 399.711 281.362 395.412C275.575 391.113 272.682 385.12 272.682 377.432C272.682 372.059 273.963 367.471 276.526 363.668C279.171 359.865 283.305 356.187 288.926 352.632C285.785 349.491 283.429 346.432 281.858 343.456C280.287 340.397 279.502 336.967 279.502 333.164C279.502 328.948 280.577 325.228 282.726 322.004C284.875 318.697 287.975 316.135 292.026 314.316C296.077 312.415 300.871 311.464 306.41 311.464C311.701 311.464 316.289 312.415 320.174 314.316C324.142 316.217 327.159 318.821 329.226 322.128C331.375 325.352 332.45 329.031 332.45 333.164C332.45 337.876 331.417 341.844 329.35 345.068C327.283 348.209 323.811 351.433 318.934 354.74L334.31 369.372C335.881 366.313 336.666 361.353 336.666 354.492H355.266C355.266 361.105 354.811 366.52 353.902 370.736C352.993 374.869 351.339 379.044 348.942 383.26L366.178 400H339.518L333.07 394.048C329.929 396.776 326.002 398.76 321.29 400C316.661 401.24 311.081 401.86 304.55 401.86ZM305.79 344.944C308.766 343.125 310.833 341.472 311.99 339.984C313.147 338.496 313.726 336.719 313.726 334.652C313.726 332.255 313.065 330.436 311.742 329.196C310.419 327.873 308.642 327.212 306.41 327.212C304.178 327.212 302.401 327.873 301.078 329.196C299.755 330.436 299.094 332.255 299.094 334.652C299.094 336.388 299.59 338 300.582 339.488C301.574 340.893 303.31 342.712 305.79 344.944ZM305.79 386.608C312.321 386.608 317.115 385.037 320.174 381.896L303.434 365.652C300.127 367.223 297.73 368.917 296.242 370.736C294.837 372.555 294.134 374.787 294.134 377.432C294.134 380.491 295.25 382.805 297.482 384.376C299.714 385.864 302.483 386.608 305.79 386.608Z" fill="white"/>
<path opacity="0.1" d="M209.964 356.6L178.716 313.324H203.888L222.612 339.24L241.336 313.324H266.508L235.136 356.6L266.508 400H241.336L222.612 374.084L203.764 400H178.592L209.964 356.6Z" fill="white"/>
<path opacity="0.1" d="M134.392 401.86C121.331 401.86 111.493 398.388 104.88 391.444C98.2666 384.417 94.96 375.159 94.96 363.668V313.324H116.908V363.916C116.908 369.703 118.437 374.084 121.496 377.06C124.637 380.036 128.936 381.524 134.392 381.524C139.848 381.524 144.105 380.036 147.164 377.06C150.223 374.084 151.752 369.703 151.752 363.916V313.324H173.7V363.668C173.7 375.241 170.393 384.5 163.78 391.444C157.249 398.388 147.453 401.86 134.392 401.86Z" fill="white"/>
</svg>
