<svg width="782" height="552" viewBox="0 0 782 552" fill="none" xmlns="http://www.w3.org/2000/svg">
<path opacity="0.33" d="M695.418 444.15H742.518C754.818 444.15 764.418 447.25 771.318 453.45C778.318 459.65 781.818 468.55 781.818 480.15C781.818 487.95 780.118 494.6 776.718 500.1C773.318 505.6 768.518 509.7 762.318 512.4L780.918 549H753.618L736.968 516.15H721.968V549H695.418V444.15ZM737.868 493.8C743.168 493.8 747.268 492.8 750.168 490.8C753.068 488.7 754.518 485.15 754.518 480.15C754.518 474.95 753.068 471.4 750.168 469.5C747.368 467.5 743.268 466.5 737.868 466.5H721.968V493.8H737.868Z" fill="white"/>
<path opacity="0.33" d="M610.457 444.15H684.857V466.5H637.007V486.15H671.957V507H637.007V526.65H684.857V549H610.457V444.15Z" fill="white"/>
<path opacity="0.33" d="M505.574 444.15H531.824L570.374 506.55V444.15H596.924V549H570.824L532.124 486.45V549H505.574V444.15Z" fill="white"/>
<path opacity="0.33" d="M455.427 551.25C444.027 551.25 433.977 549.05 425.277 544.65C416.677 540.25 410.027 533.95 405.327 525.75C400.627 517.45 398.277 507.75 398.277 496.65C398.277 485.55 400.627 475.9 405.327 467.7C410.027 459.4 416.677 453.05 425.277 448.65C433.977 444.15 444.027 441.9 455.427 441.9C463.027 441.9 469.727 442.65 475.527 444.15C481.427 445.55 486.877 447.85 491.877 451.05V476.25C487.477 472.75 482.477 470.25 476.877 468.75C471.377 467.15 465.027 466.35 457.827 466.35C451.627 466.35 446.077 467.6 441.177 470.1C436.377 472.5 432.577 476 429.777 480.6C426.977 485.2 425.577 490.55 425.577 496.65C425.577 506.15 428.327 513.65 433.827 519.15C439.427 524.65 446.977 527.4 456.477 527.4C461.777 527.4 466.227 526.5 469.827 524.7V507.9H453.777V489.3H495.027V541.5C484.327 548 471.127 551.25 455.427 551.25Z" fill="white"/>
<path opacity="0.33" d="M361.287 444.15H387.837V549H361.287V444.15Z" fill="white"/>
<path opacity="0.33" d="M308.587 551.25C301.987 551.25 295.437 550.6 288.937 549.3C282.437 548.1 277.087 546.4 272.887 544.2V520.35C278.287 523.15 283.887 525.25 289.687 526.65C295.587 528.05 301.187 528.75 306.487 528.75C311.387 528.75 315.087 528 317.587 526.5C320.087 525 321.337 522.85 321.337 520.05C321.337 517.95 320.637 516.15 319.237 514.65C317.937 513.05 315.987 511.6 313.387 510.3C310.787 509 306.737 507.2 301.237 504.9C291.537 500.8 284.487 496.25 280.087 491.25C275.687 486.25 273.487 480.1 273.487 472.8C273.487 466.8 275.137 461.45 278.437 456.75C281.837 452.05 286.537 448.4 292.537 445.8C298.537 443.2 305.437 441.9 313.237 441.9C319.637 441.9 325.337 442.4 330.337 443.4C335.337 444.4 340.137 446 344.737 448.2V471.45C335.937 466.85 327.087 464.55 318.187 464.55C313.387 464.55 309.537 465.35 306.637 466.95C303.837 468.45 302.437 470.65 302.437 473.55C302.437 476.45 303.887 478.8 306.787 480.6C309.687 482.4 315.037 484.85 322.837 487.95C329.937 490.85 335.437 493.7 339.337 496.5C343.337 499.3 346.237 502.55 348.037 506.25C349.837 509.95 350.737 514.65 350.737 520.35C350.737 530.05 347.187 537.65 340.087 543.15C333.087 548.55 322.587 551.25 308.587 551.25Z" fill="white"/>
<path opacity="0.33" d="M190.926 444.15H265.326V466.5H217.476V486.15H252.426V507H217.476V526.65H265.326V549H190.926V444.15Z" fill="white"/>
<path opacity="0.33" d="M85.75 444.15H123.4C134.9 444.15 144.95 446.25 153.55 450.45C162.15 454.65 168.75 460.7 173.35 468.6C178.05 476.4 180.4 485.55 180.4 496.05C180.4 513.45 175.3 526.65 165.1 535.65C154.9 544.55 140.75 549 122.65 549H85.75V444.15ZM124.9 526.65C134 526.65 140.95 523.9 145.75 518.4C150.65 512.9 153.1 505.45 153.1 496.05C153.1 487.45 150.65 480.4 145.75 474.9C140.95 469.3 134.3 466.5 125.8 466.5H112.3V526.65H124.9Z" fill="white"/>
<path opacity="0.33" d="M529.305 309.15H555.855V414H529.305V309.15Z" fill="white"/>
<path opacity="0.33" d="M469.028 416.25C453.228 416.25 441.328 412.05 433.328 403.65C425.328 395.15 421.328 383.95 421.328 370.05V309.15H447.878V370.35C447.878 377.35 449.728 382.65 453.428 386.25C457.228 389.85 462.428 391.65 469.028 391.65C475.628 391.65 480.778 389.85 484.478 386.25C488.178 382.65 490.028 377.35 490.028 370.35V309.15H516.578V370.05C516.578 384.05 512.578 395.25 504.578 403.65C496.678 412.05 484.828 416.25 469.028 416.25Z" fill="white"/>
<path opacity="0.33" d="M338.536 416.25C326.936 416.25 317.586 413.65 310.486 408.45C303.486 403.25 299.986 396 299.986 386.7C299.986 380.2 301.536 374.65 304.636 370.05C307.836 365.45 312.836 361 319.636 356.7C315.836 352.9 312.986 349.2 311.086 345.6C309.186 341.9 308.236 337.75 308.236 333.15C308.236 328.05 309.536 323.55 312.136 319.65C314.736 315.65 318.486 312.55 323.386 310.35C328.286 308.05 334.086 306.9 340.786 306.9C347.186 306.9 352.736 308.05 357.436 310.35C362.236 312.65 365.886 315.8 368.386 319.8C370.986 323.7 372.286 328.15 372.286 333.15C372.286 338.85 371.036 343.65 368.536 347.55C366.036 351.35 361.836 355.25 355.936 359.25L374.536 376.95C376.436 373.25 377.386 367.25 377.386 358.95H399.886C399.886 366.95 399.336 373.5 398.236 378.6C397.136 383.6 395.136 388.65 392.236 393.75L413.086 414H380.836L373.036 406.8C369.236 410.1 364.486 412.5 358.786 414C353.186 415.5 346.436 416.25 338.536 416.25ZM340.036 347.4C343.636 345.2 346.136 343.2 347.536 341.4C348.936 339.6 349.636 337.45 349.636 334.95C349.636 332.05 348.836 329.85 347.236 328.35C345.636 326.75 343.486 325.95 340.786 325.95C338.086 325.95 335.936 326.75 334.336 328.35C332.736 329.85 331.936 332.05 331.936 334.95C331.936 337.05 332.536 339 333.736 340.8C334.936 342.5 337.036 344.7 340.036 347.4ZM340.036 397.8C347.936 397.8 353.736 395.9 357.436 392.1L337.186 372.45C333.186 374.35 330.286 376.4 328.486 378.6C326.786 380.8 325.936 383.5 325.936 386.7C325.936 390.4 327.286 393.2 329.986 395.1C332.686 396.9 336.036 397.8 340.036 397.8Z" fill="white"/>
<path opacity="0.33" d="M224.118 361.5L186.318 309.15H216.768L239.418 340.5L262.068 309.15H292.518L254.568 361.5L292.518 414H262.068L239.418 382.65L216.618 414H186.168L224.118 361.5Z" fill="white"/>
<path opacity="0.33" d="M132.7 416.25C116.9 416.25 105 412.05 97 403.65C89 395.15 85 383.95 85 370.05V309.15H111.55V370.35C111.55 377.35 113.4 382.65 117.1 386.25C120.9 389.85 126.1 391.65 132.7 391.65C139.3 391.65 144.45 389.85 148.15 386.25C151.85 382.65 153.7 377.35 153.7 370.35V309.15H180.25V370.05C180.25 384.05 176.25 395.25 168.25 403.65C160.35 412.05 148.5 416.25 132.7 416.25Z" fill="white"/>
<path fill-rule="evenodd" clip-rule="evenodd" d="M18.8786 393C8.45231 411.059 14.6397 434.151 32.6987 444.577C50.7576 455.003 73.8494 448.816 84.2757 430.757L18.8786 393Z" fill="#108AFA"/>
<path fill-rule="evenodd" clip-rule="evenodd" d="M46 422L61 400L65.1311 402.817L50.1311 424.817L46 422Z" fill="#FFB800"/>
<path fill-rule="evenodd" clip-rule="evenodd" d="M601 18.8857C607.022 8.4554 620.359 4.88173 630.789 10.9036C641.22 16.9256 644.793 30.2627 638.771 40.6929L601 18.8857Z" fill="#FFB800"/>
<path fill-rule="evenodd" clip-rule="evenodd" d="M612.227 34.5507L619.292 22.9591L622.708 25.041L615.642 36.6326L612.227 34.5507Z" fill="#108AFA"/>
</svg>
