<svg width="179" height="233" viewBox="0 0 179 233" fill="none" xmlns="http://www.w3.org/2000/svg">
<path d="M0 65.5715C0 57.3317 6.65214 50.6521 14.858 50.6521H163.438C171.644 50.6521 178.296 57.3317 178.296 65.5715V218.081C178.296 226.32 171.644 233 163.438 233H14.858C6.65214 233 0 226.32 0 218.081V65.5715Z" fill="white"/>
<path d="M23.8276 72H19V76.8276H23.8276V72Z" fill="black"/>
<path d="M23.8276 76.8276H19V81.6552H23.8276V76.8276Z" fill="black"/>
<path d="M23.8276 81.6553H19V86.4829H23.8276V81.6553Z" fill="black"/>
<path d="M23.8276 86.4827H19V91.3103H23.8276V86.4827Z" fill="black"/>
<path d="M23.8276 91.3103H19V96.1379H23.8276V91.3103Z" fill="black"/>
<path d="M23.8276 96.1379H19V100.966H23.8276V96.1379Z" fill="black"/>
<path d="M23.8276 100.966H19V105.793H23.8276V100.966Z" fill="black"/>
<path d="M23.8276 110.621H19V115.448H23.8276V110.621Z" fill="black"/>
<path d="M23.8276 115.448H19V120.276H23.8276V115.448Z" fill="black"/>
<path d="M23.8276 125.104H19V129.931H23.8276V125.104Z" fill="black"/>
<path d="M23.8276 129.931H19V134.759H23.8276V129.931Z" fill="black"/>
<path d="M23.8276 139.586H19V144.414H23.8276V139.586Z" fill="black"/>
<path d="M23.8276 144.414H19V149.241H23.8276V144.414Z" fill="black"/>
<path d="M23.8276 154.069H19V158.896H23.8276V154.069Z" fill="black"/>
<path d="M23.8276 163.724H19V168.552H23.8276V163.724Z" fill="black"/>
<path d="M23.8276 168.552H19V173.379H23.8276V168.552Z" fill="black"/>
<path d="M23.8276 178.207H19V183.034H23.8276V178.207Z" fill="black"/>
<path d="M23.8276 183.034H19V187.862H23.8276V183.034Z" fill="black"/>
<path d="M23.8276 187.862H19V192.69H23.8276V187.862Z" fill="black"/>
<path d="M23.8276 192.69H19V197.517H23.8276V192.69Z" fill="black"/>
<path d="M23.8276 197.517H19V202.345H23.8276V197.517Z" fill="black"/>
<path d="M23.8276 202.345H19V207.172H23.8276V202.345Z" fill="black"/>
<path d="M23.8276 207.172H19V212H23.8276V207.172Z" fill="black"/>
<path d="M28.6552 72H23.8276V76.8276H28.6552V72Z" fill="black"/>
<path d="M28.6552 100.966H23.8276V105.793H28.6552V100.966Z" fill="black"/>
<path d="M28.6552 110.621H23.8276V115.448H28.6552V110.621Z" fill="black"/>
<path d="M28.6552 120.276H23.8276V125.103H28.6552V120.276Z" fill="black"/>
<path d="M28.6552 125.104H23.8276V129.931H28.6552V125.104Z" fill="black"/>
<path d="M28.6552 139.586H23.8276V144.414H28.6552V139.586Z" fill="black"/>
<path d="M28.6552 149.241H23.8276V154.069H28.6552V149.241Z" fill="black"/>
<path d="M28.6552 154.069H23.8276V158.896H28.6552V154.069Z" fill="black"/>
<path d="M28.6552 158.896H23.8276V163.724H28.6552V158.896Z" fill="black"/>
<path d="M28.6552 163.724H23.8276V168.552H28.6552V163.724Z" fill="black"/>
<path d="M28.6552 178.207H23.8276V183.034H28.6552V178.207Z" fill="black"/>
<path d="M28.6552 207.172H23.8276V212H28.6552V207.172Z" fill="black"/>
<path d="M33.4829 72H28.6553V76.8276H33.4829V72Z" fill="black"/>
<path d="M33.4829 81.6553H28.6553V86.4829H33.4829V81.6553Z" fill="black"/>
<path d="M33.4829 86.4827H28.6553V91.3103H33.4829V86.4827Z" fill="black"/>
<path d="M33.4829 91.3103H28.6553V96.1379H33.4829V91.3103Z" fill="black"/>
<path d="M33.4829 100.966H28.6553V105.793H33.4829V100.966Z" fill="black"/>
<path d="M33.4829 110.621H28.6553V115.448H33.4829V110.621Z" fill="black"/>
<path d="M33.4829 125.104H28.6553V129.931H33.4829V125.104Z" fill="black"/>
<path d="M33.4829 139.586H28.6553V144.414H33.4829V139.586Z" fill="black"/>
<path d="M33.4829 144.414H28.6553V149.241H33.4829V144.414Z" fill="black"/>
<path d="M33.4829 158.896H28.6553V163.724H33.4829V158.896Z" fill="black"/>
<path d="M33.4829 163.724H28.6553V168.552H33.4829V163.724Z" fill="black"/>
<path d="M33.4829 168.552H28.6553V173.379H33.4829V168.552Z" fill="black"/>
<path d="M33.4829 178.207H28.6553V183.034H33.4829V178.207Z" fill="black"/>
<path d="M33.4829 187.862H28.6553V192.69H33.4829V187.862Z" fill="black"/>
<path d="M33.4829 192.69H28.6553V197.517H33.4829V192.69Z" fill="black"/>
<path d="M33.4829 197.517H28.6553V202.345H33.4829V197.517Z" fill="black"/>
<path d="M33.4829 207.172H28.6553V212H33.4829V207.172Z" fill="black"/>
<path d="M38.3103 72H33.4827V76.8276H38.3103V72Z" fill="black"/>
<path d="M38.3103 81.6553H33.4827V86.4829H38.3103V81.6553Z" fill="black"/>
<path d="M38.3103 86.4827H33.4827V91.3103H38.3103V86.4827Z" fill="black"/>
<path d="M38.3103 91.3103H33.4827V96.1379H38.3103V91.3103Z" fill="black"/>
<path d="M38.3103 100.966H33.4827V105.793H38.3103V100.966Z" fill="black"/>
<path d="M38.3103 110.621H33.4827V115.448H38.3103V110.621Z" fill="black"/>
<path d="M38.3103 115.448H33.4827V120.276H38.3103V115.448Z" fill="black"/>
<path d="M38.3103 120.276H33.4827V125.103H38.3103V120.276Z" fill="black"/>
<path d="M38.3103 129.931H33.4827V134.759H38.3103V129.931Z" fill="black"/>
<path d="M38.3103 178.207H33.4827V183.034H38.3103V178.207Z" fill="black"/>
<path d="M38.3103 187.862H33.4827V192.69H38.3103V187.862Z" fill="black"/>
<path d="M38.3103 192.69H33.4827V197.517H38.3103V192.69Z" fill="black"/>
<path d="M38.3103 197.517H33.4827V202.345H38.3103V197.517Z" fill="black"/>
<path d="M38.3103 207.172H33.4827V212H38.3103V207.172Z" fill="black"/>
<path d="M43.1379 72H38.3103V76.8276H43.1379V72Z" fill="black"/>
<path d="M43.1379 81.6553H38.3103V86.4829H43.1379V81.6553Z" fill="black"/>
<path d="M43.1379 86.4827H38.3103V91.3103H43.1379V86.4827Z" fill="black"/>
<path d="M43.1379 91.3103H38.3103V96.1379H43.1379V91.3103Z" fill="black"/>
<path d="M43.1379 100.966H38.3103V105.793H43.1379V100.966Z" fill="black"/>
<path d="M43.1379 120.276H38.3103V125.103H43.1379V120.276Z" fill="black"/>
<path d="M43.1379 125.104H38.3103V129.931H43.1379V125.104Z" fill="black"/>
<path d="M43.1379 139.586H38.3103V144.414H43.1379V139.586Z" fill="black"/>
<path d="M43.1379 149.241H38.3103V154.069H43.1379V149.241Z" fill="black"/>
<path d="M43.1379 158.896H38.3103V163.724H43.1379V158.896Z" fill="black"/>
<path d="M43.1379 178.207H38.3103V183.034H43.1379V178.207Z" fill="black"/>
<path d="M43.1379 187.862H38.3103V192.69H43.1379V187.862Z" fill="black"/>
<path d="M43.1379 192.69H38.3103V197.517H43.1379V192.69Z" fill="black"/>
<path d="M43.1379 197.517H38.3103V202.345H43.1379V197.517Z" fill="black"/>
<path d="M43.1379 207.172H38.3103V212H43.1379V207.172Z" fill="black"/>
<path d="M47.9655 72H43.1379V76.8276H47.9655V72Z" fill="black"/>
<path d="M47.9655 100.966H43.1379V105.793H47.9655V100.966Z" fill="black"/>
<path d="M47.9655 115.448H43.1379V120.276H47.9655V115.448Z" fill="black"/>
<path d="M47.9655 120.276H43.1379V125.103H47.9655V120.276Z" fill="black"/>
<path d="M47.9655 125.104H43.1379V129.931H47.9655V125.104Z" fill="black"/>
<path d="M47.9655 139.586H43.1379V144.414H47.9655V139.586Z" fill="black"/>
<path d="M47.9655 144.414H43.1379V149.241H47.9655V144.414Z" fill="black"/>
<path d="M47.9655 154.069H43.1379V158.896H47.9655V154.069Z" fill="black"/>
<path d="M47.9655 158.896H43.1379V163.724H47.9655V158.896Z" fill="black"/>
<path d="M47.9655 163.724H43.1379V168.552H47.9655V163.724Z" fill="black"/>
<path d="M47.9655 168.552H43.1379V173.379H47.9655V168.552Z" fill="black"/>
<path d="M47.9655 178.207H43.1379V183.034H47.9655V178.207Z" fill="black"/>
<path d="M47.9655 207.172H43.1379V212H47.9655V207.172Z" fill="black"/>
<path d="M52.7932 72H47.9656V76.8276H52.7932V72Z" fill="black"/>
<path d="M52.7932 76.8276H47.9656V81.6552H52.7932V76.8276Z" fill="black"/>
<path d="M52.7932 81.6553H47.9656V86.4829H52.7932V81.6553Z" fill="black"/>
<path d="M52.7932 86.4827H47.9656V91.3103H52.7932V86.4827Z" fill="black"/>
<path d="M52.7932 91.3103H47.9656V96.1379H52.7932V91.3103Z" fill="black"/>
<path d="M52.7932 96.1379H47.9656V100.966H52.7932V96.1379Z" fill="black"/>
<path d="M52.7932 100.966H47.9656V105.793H52.7932V100.966Z" fill="black"/>
<path d="M52.7932 110.621H47.9656V115.448H52.7932V110.621Z" fill="black"/>
<path d="M52.7932 120.276H47.9656V125.103H52.7932V120.276Z" fill="black"/>
<path d="M52.7932 129.931H47.9656V134.759H52.7932V129.931Z" fill="black"/>
<path d="M52.7932 139.586H47.9656V144.414H52.7932V139.586Z" fill="black"/>
<path d="M52.7932 149.241H47.9656V154.069H52.7932V149.241Z" fill="black"/>
<path d="M52.7932 158.896H47.9656V163.724H52.7932V158.896Z" fill="black"/>
<path d="M52.7932 168.552H47.9656V173.379H52.7932V168.552Z" fill="black"/>
<path d="M52.7932 178.207H47.9656V183.034H52.7932V178.207Z" fill="black"/>
<path d="M52.7932 183.034H47.9656V187.862H52.7932V183.034Z" fill="black"/>
<path d="M52.7932 187.862H47.9656V192.69H52.7932V187.862Z" fill="black"/>
<path d="M52.7932 192.69H47.9656V197.517H52.7932V192.69Z" fill="black"/>
<path d="M52.7932 197.517H47.9656V202.345H52.7932V197.517Z" fill="black"/>
<path d="M52.7932 202.345H47.9656V207.172H52.7932V202.345Z" fill="black"/>
<path d="M52.7932 207.172H47.9656V212H52.7932V207.172Z" fill="black"/>
<path d="M57.6208 129.931H52.7932V134.759H57.6208V129.931Z" fill="black"/>
<path d="M57.6208 139.586H52.7932V144.414H57.6208V139.586Z" fill="black"/>
<path d="M57.6208 154.069H52.7932V158.896H57.6208V154.069Z" fill="black"/>
<path d="M57.6208 168.552H52.7932V173.379H57.6208V168.552Z" fill="black"/>
<path d="M62.4482 72H57.6206V76.8276H62.4482V72Z" fill="black"/>
<path d="M62.4482 81.6553H57.6206V86.4829H62.4482V81.6553Z" fill="black"/>
<path d="M62.4482 86.4827H57.6206V91.3103H62.4482V86.4827Z" fill="black"/>
<path d="M62.4482 91.3103H57.6206V96.1379H62.4482V91.3103Z" fill="black"/>
<path d="M62.4482 100.966H57.6206V105.793H62.4482V100.966Z" fill="black"/>
<path d="M62.4482 110.621H57.6206V115.448H62.4482V110.621Z" fill="black"/>
<path d="M62.4482 120.276H57.6206V125.103H62.4482V120.276Z" fill="black"/>
<path d="M62.4482 129.931H57.6206V134.759H62.4482V129.931Z" fill="black"/>
<path d="M62.4482 134.759H57.6206V139.586H62.4482V134.759Z" fill="black"/>
<path d="M62.4482 168.552H57.6206V173.379H62.4482V168.552Z" fill="black"/>
<path d="M62.4482 173.379H57.6206V178.207H62.4482V173.379Z" fill="black"/>
<path d="M62.4482 192.69H57.6206V197.517H62.4482V192.69Z" fill="black"/>
<path d="M62.4482 197.517H57.6206V202.345H62.4482V197.517Z" fill="black"/>
<path d="M62.4482 202.345H57.6206V207.172H62.4482V202.345Z" fill="black"/>
<path d="M62.4482 207.172H57.6206V212H62.4482V207.172Z" fill="black"/>
<path d="M67.2758 76.8276H62.4482V81.6552H67.2758V76.8276Z" fill="black"/>
<path d="M67.2758 81.6553H62.4482V86.4829H67.2758V81.6553Z" fill="black"/>
<path d="M67.2758 86.4827H62.4482V91.3103H67.2758V86.4827Z" fill="black"/>
<path d="M67.2758 120.276H62.4482V125.103H67.2758V120.276Z" fill="black"/>
<path d="M67.2758 125.104H62.4482V129.931H67.2758V125.104Z" fill="black"/>
<path d="M67.2758 129.931H62.4482V134.759H67.2758V129.931Z" fill="black"/>
<path d="M67.2758 134.759H62.4482V139.586H67.2758V134.759Z" fill="black"/>
<path d="M67.2758 139.586H62.4482V144.414H67.2758V139.586Z" fill="black"/>
<path d="M67.2758 149.241H62.4482V154.069H67.2758V149.241Z" fill="black"/>
<path d="M67.2758 173.379H62.4482V178.207H67.2758V173.379Z" fill="black"/>
<path d="M67.2758 178.207H62.4482V183.034H67.2758V178.207Z" fill="black"/>
<path d="M67.2758 187.862H62.4482V192.69H67.2758V187.862Z" fill="black"/>
<path d="M67.2758 197.517H62.4482V202.345H67.2758V197.517Z" fill="black"/>
<path d="M67.2758 207.172H62.4482V212H67.2758V207.172Z" fill="black"/>
<path d="M72.1035 72H67.2759V76.8276H72.1035V72Z" fill="black"/>
<path d="M72.1035 76.8276H67.2759V81.6552H72.1035V76.8276Z" fill="black"/>
<path d="M72.1035 81.6553H67.2759V86.4829H72.1035V81.6553Z" fill="black"/>
<path d="M72.1035 86.4827H67.2759V91.3103H72.1035V86.4827Z" fill="black"/>
<path d="M72.1035 96.1379H67.2759V100.966H72.1035V96.1379Z" fill="black"/>
<path d="M72.1035 100.966H67.2759V105.793H72.1035V100.966Z" fill="black"/>
<path d="M72.1035 105.793H67.2759V110.621H72.1035V105.793Z" fill="black"/>
<path d="M72.1035 110.621H67.2759V115.448H72.1035V110.621Z" fill="black"/>
<path d="M72.1035 115.448H67.2759V120.276H72.1035V115.448Z" fill="black"/>
<path d="M72.1035 120.276H67.2759V125.103H72.1035V120.276Z" fill="black"/>
<path d="M72.1035 125.104H67.2759V129.931H72.1035V125.104Z" fill="black"/>
<path d="M72.1035 129.931H67.2759V134.759H72.1035V129.931Z" fill="black"/>
<path d="M72.1035 139.586H67.2759V144.414H72.1035V139.586Z" fill="black"/>
<path d="M72.1035 154.069H67.2759V158.896H72.1035V154.069Z" fill="black"/>
<path d="M72.1035 158.896H67.2759V163.724H72.1035V158.896Z" fill="black"/>
<path d="M72.1035 173.379H67.2759V178.207H72.1035V173.379Z" fill="black"/>
<path d="M72.1035 183.034H67.2759V187.862H72.1035V183.034Z" fill="black"/>
<path d="M72.1035 197.517H67.2759V202.345H72.1035V197.517Z" fill="black"/>
<path d="M72.1035 202.345H67.2759V207.172H72.1035V202.345Z" fill="black"/>
<path d="M76.9311 76.8276H72.1035V81.6552H76.9311V76.8276Z" fill="black"/>
<path d="M76.9311 91.3103H72.1035V96.1379H76.9311V91.3103Z" fill="black"/>
<path d="M76.9311 96.1379H72.1035V100.966H76.9311V96.1379Z" fill="black"/>
<path d="M76.9311 110.621H72.1035V115.448H76.9311V110.621Z" fill="black"/>
<path d="M76.9311 120.276H72.1035V125.103H76.9311V120.276Z" fill="black"/>
<path d="M76.9311 134.759H72.1035V139.586H76.9311V134.759Z" fill="black"/>
<path d="M76.9311 139.586H72.1035V144.414H76.9311V139.586Z" fill="black"/>
<path d="M76.9311 144.414H72.1035V149.241H76.9311V144.414Z" fill="black"/>
<path d="M76.9311 163.724H72.1035V168.552H76.9311V163.724Z" fill="black"/>
<path d="M76.9311 183.034H72.1035V187.862H76.9311V183.034Z" fill="black"/>
<path d="M76.9311 187.862H72.1035V192.69H76.9311V187.862Z" fill="black"/>
<path d="M76.9311 192.69H72.1035V197.517H76.9311V192.69Z" fill="black"/>
<path d="M76.9311 207.172H72.1035V212H76.9311V207.172Z" fill="black"/>
<path d="M81.7587 72H76.9312V76.8276H81.7587V72Z" fill="black"/>
<path d="M81.7587 76.8276H76.9312V81.6552H81.7587V76.8276Z" fill="black"/>
<path d="M81.7587 86.4827H76.9312V91.3103H81.7587V86.4827Z" fill="black"/>
<path d="M81.7587 91.3103H76.9312V96.1379H81.7587V91.3103Z" fill="black"/>
<path d="M81.7587 100.966H76.9312V105.793H81.7587V100.966Z" fill="black"/>
<path d="M81.7587 105.793H76.9312V110.621H81.7587V105.793Z" fill="black"/>
<path d="M81.7587 110.621H76.9312V115.448H81.7587V110.621Z" fill="black"/>
<path d="M81.7587 115.448H76.9312V120.276H81.7587V115.448Z" fill="black"/>
<path d="M81.7587 120.276H76.9312V125.103H81.7587V120.276Z" fill="black"/>
<path d="M81.7587 129.931H76.9312V134.759H81.7587V129.931Z" fill="black"/>
<path d="M81.7587 134.759H76.9312V139.586H81.7587V134.759Z" fill="black"/>
<path d="M81.7587 149.241H76.9312V154.069H81.7587V149.241Z" fill="black"/>
<path d="M81.7587 183.034H76.9312V187.862H81.7587V183.034Z" fill="black"/>
<path d="M81.7587 197.517H76.9312V202.345H81.7587V197.517Z" fill="black"/>
<path d="M81.7587 202.345H76.9312V207.172H81.7587V202.345Z" fill="black"/>
<path d="M86.5861 72H81.7585V76.8276H86.5861V72Z" fill="black"/>
<path d="M86.5861 76.8276H81.7585V81.6552H86.5861V76.8276Z" fill="black"/>
<path d="M86.5861 81.6553H81.7585V86.4829H86.5861V81.6553Z" fill="black"/>
<path d="M86.5861 86.4827H81.7585V91.3103H86.5861V86.4827Z" fill="black"/>
<path d="M86.5861 96.1379H81.7585V100.966H86.5861V96.1379Z" fill="black"/>
<path d="M86.5861 125.104H81.7585V129.931H86.5861V125.104Z" fill="black"/>
<path d="M86.5861 129.931H81.7585V134.759H86.5861V129.931Z" fill="black"/>
<path d="M86.5861 149.241H81.7585V154.069H86.5861V149.241Z" fill="black"/>
<path d="M86.5861 158.896H81.7585V163.724H86.5861V158.896Z" fill="black"/>
<path d="M86.5861 173.379H81.7585V178.207H86.5861V173.379Z" fill="black"/>
<path d="M86.5861 178.207H81.7585V183.034H86.5861V178.207Z" fill="black"/>
<path d="M86.5861 183.034H81.7585V187.862H86.5861V183.034Z" fill="black"/>
<path d="M86.5861 192.69H81.7585V197.517H86.5861V192.69Z" fill="black"/>
<path d="M86.5861 202.345H81.7585V207.172H86.5861V202.345Z" fill="black"/>
<path d="M91.4138 86.4827H86.5862V91.3103H91.4138V86.4827Z" fill="black"/>
<path d="M91.4138 96.1379H86.5862V100.966H91.4138V96.1379Z" fill="black"/>
<path d="M91.4138 100.966H86.5862V105.793H91.4138V100.966Z" fill="black"/>
<path d="M91.4138 105.793H86.5862V110.621H91.4138V105.793Z" fill="black"/>
<path d="M91.4138 110.621H86.5862V115.448H91.4138V110.621Z" fill="black"/>
<path d="M91.4138 125.104H86.5862V129.931H91.4138V125.104Z" fill="black"/>
<path d="M91.4138 129.931H86.5862V134.759H91.4138V129.931Z" fill="black"/>
<path d="M91.4138 158.896H86.5862V163.724H91.4138V158.896Z" fill="black"/>
<path d="M91.4138 183.034H86.5862V187.862H91.4138V183.034Z" fill="black"/>
<path d="M91.4138 192.69H86.5862V197.517H91.4138V192.69Z" fill="black"/>
<path d="M91.4138 197.517H86.5862V202.345H91.4138V197.517Z" fill="black"/>
<path d="M96.2414 86.4827H91.4138V91.3103H96.2414V86.4827Z" fill="black"/>
<path d="M96.2414 91.3103H91.4138V96.1379H96.2414V91.3103Z" fill="black"/>
<path d="M96.2414 105.793H91.4138V110.621H96.2414V105.793Z" fill="black"/>
<path d="M96.2414 110.621H91.4138V115.448H96.2414V110.621Z" fill="black"/>
<path d="M96.2414 125.104H91.4138V129.931H96.2414V125.104Z" fill="black"/>
<path d="M96.2414 134.759H91.4138V139.586H96.2414V134.759Z" fill="black"/>
<path d="M96.2414 144.414H91.4138V149.241H96.2414V144.414Z" fill="black"/>
<path d="M96.2414 154.069H91.4138V158.896H96.2414V154.069Z" fill="black"/>
<path d="M96.2414 158.896H91.4138V163.724H96.2414V158.896Z" fill="black"/>
<path d="M96.2414 168.552H91.4138V173.379H96.2414V168.552Z" fill="black"/>
<path d="M96.2414 183.034H91.4138V187.862H96.2414V183.034Z" fill="black"/>
<path d="M96.2414 187.862H91.4138V192.69H96.2414V187.862Z" fill="black"/>
<path d="M96.2414 192.69H91.4138V197.517H96.2414V192.69Z" fill="black"/>
<path d="M96.2414 202.345H91.4138V207.172H96.2414V202.345Z" fill="black"/>
<path d="M101.069 72H96.2415V76.8276H101.069V72Z" fill="black"/>
<path d="M101.069 76.8276H96.2415V81.6552H101.069V76.8276Z" fill="black"/>
<path d="M101.069 81.6553H96.2415V86.4829H101.069V81.6553Z" fill="black"/>
<path d="M101.069 91.3103H96.2415V96.1379H101.069V91.3103Z" fill="black"/>
<path d="M101.069 100.966H96.2415V105.793H101.069V100.966Z" fill="black"/>
<path d="M101.069 105.793H96.2415V110.621H101.069V105.793Z" fill="black"/>
<path d="M101.069 110.621H96.2415V115.448H101.069V110.621Z" fill="black"/>
<path d="M101.069 115.448H96.2415V120.276H101.069V115.448Z" fill="black"/>
<path d="M101.069 134.759H96.2415V139.586H101.069V134.759Z" fill="black"/>
<path d="M101.069 158.896H96.2415V163.724H101.069V158.896Z" fill="black"/>
<path d="M101.069 168.552H96.2415V173.379H101.069V168.552Z" fill="black"/>
<path d="M101.069 173.379H96.2415V178.207H101.069V173.379Z" fill="black"/>
<path d="M101.069 183.034H96.2415V187.862H101.069V183.034Z" fill="black"/>
<path d="M101.069 192.69H96.2415V197.517H101.069V192.69Z" fill="black"/>
<path d="M105.896 72H101.069V76.8276H105.896V72Z" fill="black"/>
<path d="M105.896 86.4827H101.069V91.3103H105.896V86.4827Z" fill="black"/>
<path d="M105.896 105.793H101.069V110.621H105.896V105.793Z" fill="black"/>
<path d="M105.896 110.621H101.069V115.448H105.896V110.621Z" fill="black"/>
<path d="M105.896 115.448H101.069V120.276H105.896V115.448Z" fill="black"/>
<path d="M105.896 129.931H101.069V134.759H105.896V129.931Z" fill="black"/>
<path d="M105.896 154.069H101.069V158.896H105.896V154.069Z" fill="black"/>
<path d="M105.896 158.896H101.069V163.724H105.896V158.896Z" fill="black"/>
<path d="M105.896 163.724H101.069V168.552H105.896V163.724Z" fill="black"/>
<path d="M105.896 168.552H101.069V173.379H105.896V168.552Z" fill="black"/>
<path d="M105.896 173.379H101.069V178.207H105.896V173.379Z" fill="black"/>
<path d="M105.896 187.862H101.069V192.69H105.896V187.862Z" fill="black"/>
<path d="M105.896 192.69H101.069V197.517H105.896V192.69Z" fill="black"/>
<path d="M105.896 197.517H101.069V202.345H105.896V197.517Z" fill="black"/>
<path d="M110.724 72H105.896V76.8276H110.724V72Z" fill="black"/>
<path d="M110.724 76.8276H105.896V81.6552H110.724V76.8276Z" fill="black"/>
<path d="M110.724 81.6553H105.896V86.4829H110.724V81.6553Z" fill="black"/>
<path d="M110.724 96.1379H105.896V100.966H110.724V96.1379Z" fill="black"/>
<path d="M110.724 100.966H105.896V105.793H110.724V100.966Z" fill="black"/>
<path d="M110.724 105.793H105.896V110.621H110.724V105.793Z" fill="black"/>
<path d="M110.724 115.448H105.896V120.276H110.724V115.448Z" fill="black"/>
<path d="M110.724 120.276H105.896V125.103H110.724V120.276Z" fill="black"/>
<path d="M110.724 125.104H105.896V129.931H110.724V125.104Z" fill="black"/>
<path d="M110.724 149.241H105.896V154.069H110.724V149.241Z" fill="black"/>
<path d="M110.724 173.379H105.896V178.207H110.724V173.379Z" fill="black"/>
<path d="M110.724 178.207H105.896V183.034H110.724V178.207Z" fill="black"/>
<path d="M110.724 183.034H105.896V187.862H110.724V183.034Z" fill="black"/>
<path d="M110.724 197.517H105.896V202.345H110.724V197.517Z" fill="black"/>
<path d="M110.724 202.345H105.896V207.172H110.724V202.345Z" fill="black"/>
<path d="M110.724 207.172H105.896V212H110.724V207.172Z" fill="black"/>
<path d="M115.552 72H110.724V76.8276H115.552V72Z" fill="black"/>
<path d="M115.552 91.3103H110.724V96.1379H115.552V91.3103Z" fill="black"/>
<path d="M115.552 96.1379H110.724V100.966H115.552V96.1379Z" fill="black"/>
<path d="M115.552 105.793H110.724V110.621H115.552V105.793Z" fill="black"/>
<path d="M115.552 115.448H110.724V120.276H115.552V115.448Z" fill="black"/>
<path d="M115.552 129.931H110.724V134.759H115.552V129.931Z" fill="black"/>
<path d="M115.552 134.759H110.724V139.586H115.552V134.759Z" fill="black"/>
<path d="M115.552 139.586H110.724V144.414H115.552V139.586Z" fill="black"/>
<path d="M115.552 149.241H110.724V154.069H115.552V149.241Z" fill="black"/>
<path d="M115.552 168.552H110.724V173.379H115.552V168.552Z" fill="black"/>
<path d="M115.552 178.207H110.724V183.034H115.552V178.207Z" fill="black"/>
<path d="M115.552 192.69H110.724V197.517H115.552V192.69Z" fill="black"/>
<path d="M115.552 207.172H110.724V212H115.552V207.172Z" fill="black"/>
<path d="M120.379 72H115.552V76.8276H120.379V72Z" fill="black"/>
<path d="M120.379 100.966H115.552V105.793H120.379V100.966Z" fill="black"/>
<path d="M120.379 120.276H115.552V125.103H120.379V120.276Z" fill="black"/>
<path d="M120.379 125.104H115.552V129.931H120.379V125.104Z" fill="black"/>
<path d="M120.379 139.586H115.552V144.414H120.379V139.586Z" fill="black"/>
<path d="M120.379 149.241H115.552V154.069H120.379V149.241Z" fill="black"/>
<path d="M120.379 154.069H115.552V158.896H120.379V154.069Z" fill="black"/>
<path d="M120.379 168.552H115.552V173.379H120.379V168.552Z" fill="black"/>
<path d="M120.379 173.379H115.552V178.207H120.379V173.379Z" fill="black"/>
<path d="M120.379 178.207H115.552V183.034H120.379V178.207Z" fill="black"/>
<path d="M120.379 183.034H115.552V187.862H120.379V183.034Z" fill="black"/>
<path d="M120.379 187.862H115.552V192.69H120.379V187.862Z" fill="black"/>
<path d="M120.379 192.69H115.552V197.517H120.379V192.69Z" fill="black"/>
<path d="M120.379 202.345H115.552V207.172H120.379V202.345Z" fill="black"/>
<path d="M120.379 207.172H115.552V212H120.379V207.172Z" fill="black"/>
<path d="M125.207 110.621H120.379V115.448H125.207V110.621Z" fill="black"/>
<path d="M125.207 115.448H120.379V120.276H125.207V115.448Z" fill="black"/>
<path d="M125.207 120.276H120.379V125.103H125.207V120.276Z" fill="black"/>
<path d="M125.207 149.241H120.379V154.069H125.207V149.241Z" fill="black"/>
<path d="M125.207 168.552H120.379V173.379H125.207V168.552Z" fill="black"/>
<path d="M125.207 187.862H120.379V192.69H125.207V187.862Z" fill="black"/>
<path d="M125.207 192.69H120.379V197.517H125.207V192.69Z" fill="black"/>
<path d="M125.207 202.345H120.379V207.172H125.207V202.345Z" fill="black"/>
<path d="M125.207 207.172H120.379V212H125.207V207.172Z" fill="black"/>
<path d="M130.034 72H125.207V76.8276H130.034V72Z" fill="black"/>
<path d="M130.034 76.8276H125.207V81.6552H130.034V76.8276Z" fill="black"/>
<path d="M130.034 81.6553H125.207V86.4829H130.034V81.6553Z" fill="black"/>
<path d="M130.034 86.4827H125.207V91.3103H130.034V86.4827Z" fill="black"/>
<path d="M130.034 91.3103H125.207V96.1379H130.034V91.3103Z" fill="black"/>
<path d="M130.034 96.1379H125.207V100.966H130.034V96.1379Z" fill="black"/>
<path d="M130.034 100.966H125.207V105.793H130.034V100.966Z" fill="black"/>
<path d="M130.034 115.448H125.207V120.276H130.034V115.448Z" fill="black"/>
<path d="M130.034 120.276H125.207V125.103H130.034V120.276Z" fill="black"/>
<path d="M130.034 125.104H125.207V129.931H130.034V125.104Z" fill="black"/>
<path d="M130.034 134.759H125.207V139.586H130.034V134.759Z" fill="black"/>
<path d="M130.034 158.896H125.207V163.724H130.034V158.896Z" fill="black"/>
<path d="M130.034 163.724H125.207V168.552H130.034V163.724Z" fill="black"/>
<path d="M130.034 168.552H125.207V173.379H130.034V168.552Z" fill="black"/>
<path d="M130.034 178.207H125.207V183.034H130.034V178.207Z" fill="black"/>
<path d="M130.034 187.862H125.207V192.69H130.034V187.862Z" fill="black"/>
<path d="M130.034 202.345H125.207V207.172H130.034V202.345Z" fill="black"/>
<path d="M130.034 207.172H125.207V212H130.034V207.172Z" fill="black"/>
<path d="M134.862 72H130.034V76.8276H134.862V72Z" fill="black"/>
<path d="M134.862 100.966H130.034V105.793H134.862V100.966Z" fill="black"/>
<path d="M134.862 115.448H130.034V120.276H134.862V115.448Z" fill="black"/>
<path d="M134.862 120.276H130.034V125.103H134.862V120.276Z" fill="black"/>
<path d="M134.862 125.104H130.034V129.931H134.862V125.104Z" fill="black"/>
<path d="M134.862 134.759H130.034V139.586H134.862V134.759Z" fill="black"/>
<path d="M134.862 139.586H130.034V144.414H134.862V139.586Z" fill="black"/>
<path d="M134.862 144.414H130.034V149.241H134.862V144.414Z" fill="black"/>
<path d="M134.862 154.069H130.034V158.896H134.862V154.069Z" fill="black"/>
<path d="M134.862 158.896H130.034V163.724H134.862V158.896Z" fill="black"/>
<path d="M134.862 168.552H130.034V173.379H134.862V168.552Z" fill="black"/>
<path d="M134.862 187.862H130.034V192.69H134.862V187.862Z" fill="black"/>
<path d="M134.862 197.517H130.034V202.345H134.862V197.517Z" fill="black"/>
<path d="M134.862 202.345H130.034V207.172H134.862V202.345Z" fill="black"/>
<path d="M139.69 72H134.862V76.8276H139.69V72Z" fill="black"/>
<path d="M139.69 81.6553H134.862V86.4829H139.69V81.6553Z" fill="black"/>
<path d="M139.69 86.4827H134.862V91.3103H139.69V86.4827Z" fill="black"/>
<path d="M139.69 91.3103H134.862V96.1379H139.69V91.3103Z" fill="black"/>
<path d="M139.69 100.966H134.862V105.793H139.69V100.966Z" fill="black"/>
<path d="M139.69 110.621H134.862V115.448H139.69V110.621Z" fill="black"/>
<path d="M139.69 115.448H134.862V120.276H139.69V115.448Z" fill="black"/>
<path d="M139.69 120.276H134.862V125.103H139.69V120.276Z" fill="black"/>
<path d="M139.69 125.104H134.862V129.931H139.69V125.104Z" fill="black"/>
<path d="M139.69 139.586H134.862V144.414H139.69V139.586Z" fill="black"/>
<path d="M139.69 144.414H134.862V149.241H139.69V144.414Z" fill="black"/>
<path d="M139.69 149.241H134.862V154.069H139.69V149.241Z" fill="black"/>
<path d="M139.69 168.552H134.862V173.379H139.69V168.552Z" fill="black"/>
<path d="M139.69 173.379H134.862V178.207H139.69V173.379Z" fill="black"/>
<path d="M139.69 178.207H134.862V183.034H139.69V178.207Z" fill="black"/>
<path d="M139.69 183.034H134.862V187.862H139.69V183.034Z" fill="black"/>
<path d="M139.69 187.862H134.862V192.69H139.69V187.862Z" fill="black"/>
<path d="M139.69 192.69H134.862V197.517H139.69V192.69Z" fill="black"/>
<path d="M144.517 72H139.69V76.8276H144.517V72Z" fill="black"/>
<path d="M144.517 81.6553H139.69V86.4829H144.517V81.6553Z" fill="black"/>
<path d="M144.517 86.4827H139.69V91.3103H144.517V86.4827Z" fill="black"/>
<path d="M144.517 91.3103H139.69V96.1379H144.517V91.3103Z" fill="black"/>
<path d="M144.517 100.966H139.69V105.793H144.517V100.966Z" fill="black"/>
<path d="M144.517 110.621H139.69V115.448H144.517V110.621Z" fill="black"/>
<path d="M144.517 129.931H139.69V134.759H144.517V129.931Z" fill="black"/>
<path d="M144.517 149.241H139.69V154.069H144.517V149.241Z" fill="black"/>
<path d="M144.517 154.069H139.69V158.896H144.517V154.069Z" fill="black"/>
<path d="M144.517 168.552H139.69V173.379H144.517V168.552Z" fill="black"/>
<path d="M144.517 173.379H139.69V178.207H144.517V173.379Z" fill="black"/>
<path d="M144.517 178.207H139.69V183.034H144.517V178.207Z" fill="black"/>
<path d="M144.517 183.034H139.69V187.862H144.517V183.034Z" fill="black"/>
<path d="M144.517 192.69H139.69V197.517H144.517V192.69Z" fill="black"/>
<path d="M144.517 202.345H139.69V207.172H144.517V202.345Z" fill="black"/>
<path d="M144.517 207.172H139.69V212H144.517V207.172Z" fill="black"/>
<path d="M149.345 72H144.517V76.8276H149.345V72Z" fill="black"/>
<path d="M149.345 81.6553H144.517V86.4829H149.345V81.6553Z" fill="black"/>
<path d="M149.345 86.4827H144.517V91.3103H149.345V86.4827Z" fill="black"/>
<path d="M149.345 91.3103H144.517V96.1379H149.345V91.3103Z" fill="black"/>
<path d="M149.345 100.966H144.517V105.793H149.345V100.966Z" fill="black"/>
<path d="M149.345 110.621H144.517V115.448H149.345V110.621Z" fill="black"/>
<path d="M149.345 120.276H144.517V125.103H149.345V120.276Z" fill="black"/>
<path d="M149.345 129.931H144.517V134.759H149.345V129.931Z" fill="black"/>
<path d="M149.345 134.759H144.517V139.586H149.345V134.759Z" fill="black"/>
<path d="M149.345 139.586H144.517V144.414H149.345V139.586Z" fill="black"/>
<path d="M149.345 154.069H144.517V158.896H149.345V154.069Z" fill="black"/>
<path d="M149.345 158.896H144.517V163.724H149.345V158.896Z" fill="black"/>
<path d="M149.345 163.724H144.517V168.552H149.345V163.724Z" fill="black"/>
<path d="M149.345 168.552H144.517V173.379H149.345V168.552Z" fill="black"/>
<path d="M149.345 173.379H144.517V178.207H149.345V173.379Z" fill="black"/>
<path d="M149.345 187.862H144.517V192.69H149.345V187.862Z" fill="black"/>
<path d="M149.345 197.517H144.517V202.345H149.345V197.517Z" fill="black"/>
<path d="M154.172 72H149.345V76.8276H154.172V72Z" fill="black"/>
<path d="M154.172 100.966H149.345V105.793H154.172V100.966Z" fill="black"/>
<path d="M154.172 120.276H149.345V125.103H154.172V120.276Z" fill="black"/>
<path d="M154.172 134.759H149.345V139.586H154.172V134.759Z" fill="black"/>
<path d="M154.172 139.586H149.345V144.414H154.172V139.586Z" fill="black"/>
<path d="M154.172 144.414H149.345V149.241H154.172V144.414Z" fill="black"/>
<path d="M154.172 149.241H149.345V154.069H154.172V149.241Z" fill="black"/>
<path d="M154.172 154.069H149.345V158.896H154.172V154.069Z" fill="black"/>
<path d="M154.172 173.379H149.345V178.207H154.172V173.379Z" fill="black"/>
<path d="M154.172 178.207H149.345V183.034H154.172V178.207Z" fill="black"/>
<path d="M154.172 187.862H149.345V192.69H154.172V187.862Z" fill="black"/>
<path d="M154.172 202.345H149.345V207.172H154.172V202.345Z" fill="black"/>
<path d="M154.172 207.172H149.345V212H154.172V207.172Z" fill="black"/>
<path d="M159 72H154.172V76.8276H159V72Z" fill="black"/>
<path d="M159 76.8276H154.172V81.6552H159V76.8276Z" fill="black"/>
<path d="M159 81.6553H154.172V86.4829H159V81.6553Z" fill="black"/>
<path d="M159 86.4827H154.172V91.3103H159V86.4827Z" fill="black"/>
<path d="M159 91.3103H154.172V96.1379H159V91.3103Z" fill="black"/>
<path d="M159 96.1379H154.172V100.966H159V96.1379Z" fill="black"/>
<path d="M159 100.966H154.172V105.793H159V100.966Z" fill="black"/>
<path d="M159 110.621H154.172V115.448H159V110.621Z" fill="black"/>
<path d="M159 115.448H154.172V120.276H159V115.448Z" fill="black"/>
<path d="M159 125.104H154.172V129.931H159V125.104Z" fill="black"/>
<path d="M159 134.759H154.172V139.586H159V134.759Z" fill="black"/>
<path d="M159 139.586H154.172V144.414H159V139.586Z" fill="black"/>
<path d="M159 173.379H154.172V178.207H159V173.379Z" fill="black"/>
<path d="M159 187.862H154.172V192.69H159V187.862Z" fill="black"/>
<path d="M159 192.69H154.172V197.517H159V192.69Z" fill="black"/>
<path d="M159 197.517H154.172V202.345H159V197.517Z" fill="black"/>
<path d="M30.0009 0.000212479H4.25985C3.9705 -0.00380614 3.68319 0.049214 3.41433 0.156245C3.14547 0.263276 2.90032 0.422221 2.6929 0.624003C2.48547 0.825786 2.31982 1.06645 2.20542 1.33226C2.09101 1.59807 2.03009 1.88381 2.02612 2.17316V28.2181C2.03009 28.5075 2.09101 28.7932 2.20542 29.059C2.31982 29.3249 2.48547 29.5655 2.6929 29.7673C2.90032 29.9691 3.14547 30.128 3.41433 30.2351C3.68319 30.3421 3.9705 30.3951 4.25985 30.3911H30.0009C30.2903 30.3951 30.5776 30.3421 30.8465 30.2351C31.1153 30.128 31.3605 29.9691 31.5679 29.7673C31.7753 29.5655 31.941 29.3249 32.0554 29.059C32.1698 28.7932 32.2307 28.5075 32.2347 28.2181V2.17316C32.2307 1.88381 32.1698 1.59807 32.0554 1.33226C31.941 1.06645 31.7753 0.825786 31.5679 0.624003C31.3605 0.422221 31.1153 0.263276 30.8465 0.156245C30.5776 0.049214 30.2903 -0.00380614 30.0009 0.000212479ZM11.189 25.4374H6.63034V11.7615H11.189V25.4374ZM8.90966 9.84686C8.28096 9.84686 7.67802 9.59711 7.23347 9.15256C6.78892 8.708 6.53917 8.10506 6.53917 7.47637C6.53917 6.84768 6.78892 6.24473 7.23347 5.80018C7.67802 5.35563 8.28096 5.10588 8.90966 5.10588C9.24349 5.06802 9.58156 5.1011 9.90173 5.20295C10.2219 5.30481 10.5169 5.47314 10.7675 5.69693C11.0181 5.92071 11.2186 6.1949 11.3559 6.50155C11.4932 6.8082 11.5642 7.14039 11.5642 7.47637C11.5642 7.81235 11.4932 8.14453 11.3559 8.45118C11.2186 8.75783 11.0181 9.03203 10.7675 9.25581C10.5169 9.4796 10.2219 9.64793 9.90173 9.74978C9.58156 9.85164 9.24349 9.88472 8.90966 9.84686ZM27.6304 25.4374H23.0718V18.098C23.0718 16.2593 22.4184 15.0589 20.7621 15.0589C20.2495 15.0626 19.7504 15.2234 19.332 15.5196C18.9136 15.8157 18.596 16.233 18.422 16.7152C18.3031 17.0724 18.2516 17.4485 18.2701 17.8245V25.4222H13.7114C13.7114 25.4222 13.7114 12.9923 13.7114 11.7463H18.2701V13.6761C18.6842 12.9575 19.2865 12.3655 20.0121 11.9639C20.7377 11.5622 21.5592 11.3662 22.388 11.3968C25.4271 11.3968 27.6304 13.357 27.6304 17.5661V25.4374Z" fill="black"/>
<path d="M54.9586 22.66H62.0336V26.0632H50.6521V4.66285H54.9586V22.66Z" fill="black"/>
<path d="M66.9549 7.0543C66.1962 7.0543 65.5604 6.81924 65.0477 6.34912C64.5556 5.85857 64.3095 5.2556 64.3095 4.54021C64.3095 3.82482 64.5556 3.23207 65.0477 2.76195C65.5604 2.2714 66.1962 2.02612 66.9549 2.02612C67.7137 2.02612 68.3392 2.2714 68.8313 2.76195C69.344 3.23207 69.6004 3.82482 69.6004 4.54021C69.6004 5.2556 69.344 5.85857 68.8313 6.34912C68.3392 6.81924 67.7137 7.0543 66.9549 7.0543ZM69.0774 9.07783V26.0632H64.7709V9.07783H69.0774Z" fill="black"/>
<path d="M82.7759 8.83255C84.8061 8.83255 86.4467 9.4764 87.6977 10.7641C88.9486 12.0314 89.5741 13.8096 89.5741 16.0989V26.0632H85.2675V16.6814C85.2675 15.3324 84.9292 14.3002 84.2524 13.5848C83.5757 12.849 82.6529 12.481 81.484 12.481C80.2945 12.481 79.3512 12.849 78.6539 13.5848C77.9772 14.3002 77.6388 15.3324 77.6388 16.6814V26.0632H73.3323V9.07783H77.6388V11.1933C78.213 10.4575 78.941 9.8852 79.8229 9.4764C80.7252 9.04717 81.7095 8.83255 82.7759 8.83255Z" fill="black"/>
<path d="M103.759 26.0632L97.9759 18.8276V26.0632H93.6694V3.37515H97.9759V16.2828L103.697 9.07783H109.296L101.79 17.6012L109.357 26.0632H103.759Z" fill="black"/>
<path d="M127.475 17.2026C127.475 17.8158 127.434 18.3677 127.352 18.8582H114.894C114.996 20.0846 115.427 21.0453 116.186 21.7402C116.945 22.4352 117.878 22.7827 118.985 22.7827C120.585 22.7827 121.723 22.0979 122.4 20.7285H127.045C126.552 22.3636 125.609 23.7127 124.215 24.7755C122.82 25.818 121.108 26.3392 119.077 26.3392C117.437 26.3392 115.96 25.9815 114.648 25.2661C113.356 24.5303 112.341 23.498 111.603 22.1695C110.885 20.8409 110.526 19.3079 110.526 17.5705C110.526 15.8127 110.885 14.2695 111.603 12.9409C112.32 11.6124 113.325 10.5904 114.617 9.87498C115.909 9.15959 117.396 8.80189 119.077 8.80189C120.698 8.80189 122.143 9.14936 123.415 9.84431C124.707 10.5393 125.701 11.5306 126.399 12.8183C127.116 14.0856 127.475 15.547 127.475 17.2026ZM123.015 15.9762C122.994 14.8725 122.594 13.9936 121.815 13.3395C121.036 12.665 120.082 12.3277 118.954 12.3277C117.888 12.3277 116.986 12.6548 116.247 13.3088C115.53 13.9425 115.089 14.8316 114.925 15.9762H123.015Z" fill="black"/>
<path d="M129.511 17.5092C129.511 15.7923 129.85 14.2695 130.526 12.9409C131.224 11.6124 132.167 10.5904 133.356 9.87498C134.546 9.15959 135.868 8.80189 137.324 8.80189C138.432 8.80189 139.488 9.04717 140.493 9.53772C141.498 10.0078 142.297 10.6415 142.892 11.4386V3.37515H147.26V26.0632H142.892V23.5491C142.359 24.3872 141.61 25.0617 140.647 25.5727C139.683 26.0837 138.565 26.3392 137.294 26.3392C135.858 26.3392 134.546 25.9713 133.356 25.2354C132.167 24.4996 131.224 23.4674 130.526 22.1388C129.85 20.7898 129.511 19.2466 129.511 17.5092ZM142.923 17.5705C142.923 16.5281 142.718 15.639 142.308 14.9031C141.898 14.1469 141.344 13.5746 140.647 13.1862C139.949 12.7774 139.201 12.573 138.401 12.573C137.601 12.573 136.863 12.7672 136.186 13.1555C135.51 13.5439 134.956 14.1162 134.525 14.8725C134.115 15.6083 133.91 16.4872 133.91 17.5092C133.91 18.5312 134.115 19.4305 134.525 20.2073C134.956 20.9635 135.51 21.5461 136.186 21.9548C136.884 22.3636 137.622 22.568 138.401 22.568C139.201 22.568 139.949 22.3739 140.647 21.9855C141.344 21.5767 141.898 21.0044 142.308 20.2686C142.718 19.5123 142.923 18.613 142.923 17.5705Z" fill="black"/>
<path d="M153.65 7.0543C152.892 7.0543 152.256 6.81924 151.743 6.34912C151.251 5.85857 151.005 5.2556 151.005 4.54021C151.005 3.82482 151.251 3.23207 151.743 2.76195C152.256 2.2714 152.892 2.02612 153.65 2.02612C154.409 2.02612 155.035 2.2714 155.527 2.76195C156.039 3.23207 156.296 3.82482 156.296 4.54021C156.296 5.2556 156.039 5.85857 155.527 6.34912C155.035 6.81924 154.409 7.0543 153.65 7.0543ZM155.773 9.07783V26.0632H151.466V9.07783H155.773Z" fill="black"/>
<path d="M169.471 8.83255C171.502 8.83255 173.142 9.4764 174.393 10.7641C175.644 12.0314 176.269 13.8096 176.269 16.0989V26.0632H171.963V16.6814C171.963 15.3324 171.625 14.3002 170.948 13.5848C170.271 12.849 169.348 12.481 168.179 12.481C166.99 12.481 166.047 12.849 165.349 13.5848C164.673 14.3002 164.334 15.3324 164.334 16.6814V26.0632H160.028V9.07783H164.334V11.1933C164.908 10.4575 165.636 9.8852 166.518 9.4764C167.421 9.04717 168.405 8.83255 169.471 8.83255Z" fill="black"/>
</svg>
