<svg width="40" height="35" viewBox="0 0 40 35" fill="none" xmlns="http://www.w3.org/2000/svg">
<path d="M16.9822 14.1252H12.7919C12.2359 14.1252 11.721 14.4185 11.4376 14.8969L0 34.1978H4.26396C4.87482 34.1978 5.44144 33.8791 5.75873 33.3571L17.2064 14.5239C17.3127 14.349 17.1868 14.1252 16.9822 14.1252Z" fill="black"/>
<path d="M39.6614 0H16.2302C15.9826 0 15.7534 0.130847 15.6276 0.344074L12.9921 4.80972C12.8548 5.04246 13.0219 5.33642 13.2922 5.33738L35.5481 5.41687C36.5476 5.42044 37.468 4.8738 37.9432 3.99443L39.8923 0.387117C39.9867 0.212296 39.8602 0 39.6614 0Z" fill="black"/>
<path d="M36.3624 6.87121L11.458 7.16718C11.2134 7.17009 10.9881 7.30053 10.8637 7.51121L8.22676 11.9794C8.08913 12.2126 8.25725 12.5071 8.52806 12.5071H32.8763C33.315 12.5071 33.7202 12.2724 33.9384 11.8919L36.5931 7.26413C36.6942 7.08801 36.5654 6.86879 36.3624 6.87121Z" fill="black"/>
<path fill-rule="evenodd" clip-rule="evenodd" d="M23.1838 14.1252L32.2458 13.9172C32.4501 13.9125 32.5811 14.1328 32.4794 14.3101L29.8277 18.9326C29.6094 19.3132 29.2043 19.5478 28.7656 19.5478H21.6306L13.2368 33.3571C12.9195 33.8791 12.3529 34.1978 11.742 34.1978H7.47803L18.9156 14.8969C18.9809 14.7867 19.0585 14.6863 19.146 14.597L19.1752 14.5476C19.2981 14.3393 19.5199 14.2093 19.7617 14.2037L19.7801 14.2033C19.936 14.1522 20.1011 14.1252 20.27 14.1252H23.1838Z" fill="black"/>
</svg>
