<svg width="19" height="19" viewBox="0 0 19 19" fill="none" xmlns="http://www.w3.org/2000/svg">
<path d="M15.6333 0.112079L3.12135 2.10645C2.64772 2.18147 2.20191 2.41777 1.83671 2.78737C1.47152 3.15698 1.20222 3.64441 1.06069 4.19197C0.919175 4.73953 0.91136 5.32429 1.03818 5.87701C1.16499 6.42973 1.42113 6.92728 1.77627 7.31075L4.9085 10.741L5.78907 15.7312C5.88569 16.2963 6.11603 16.816 6.4525 17.228C6.78896 17.64 7.21728 17.9268 7.68613 18.0542C8.28964 18.2193 8.92272 18.1098 9.46284 17.747C9.74761 17.5494 9.99707 17.2863 10.197 16.9728L17.9283 4.94218C18.2284 4.47151 18.4056 3.90474 18.4375 3.31337C18.4695 2.72199 18.3548 2.13251 18.1078 1.61929C17.8609 1.10607 17.4929 0.692104 17.0501 0.429618C16.6073 0.167132 16.1097 0.0678858 15.62 0.1444L15.6333 0.112079ZM8.89095 15.7183C8.79396 15.8696 8.66295 15.9843 8.51337 16.0491C8.36379 16.1138 8.2019 16.1259 8.0468 16.0838C7.89896 16.0406 7.76381 15.9496 7.65601 15.8207C7.54821 15.6918 7.47187 15.53 7.43527 15.3528L6.60977 10.717L16.5185 3.852L8.89095 15.7183ZM5.77644 8.98494L2.83862 5.85881C2.72901 5.73216 2.6504 5.57191 2.6113 5.39545C2.57219 5.21898 2.5741 5.03304 2.61681 4.85779C2.64359 4.72524 2.69269 4.60066 2.76107 4.49172C2.82946 4.38278 2.9157 4.29178 3.01448 4.22432C3.11133 4.15752 3.21838 4.11476 3.32927 4.0986L15.6852 2.11995L5.77644 8.98494Z" fill="white"/>
</svg>
