<svg width="1425" height="1430" viewBox="0 0 1425 1430" fill="none" xmlns="http://www.w3.org/2000/svg">
<path fill-rule="evenodd" clip-rule="evenodd" d="M1373.93 111.659C1373.93 111.659 1373.93 111.659 1373.93 111.659C1382.01 108.883 1386.33 99.9987 1383.59 91.8161C1380.85 83.6334 1372.08 79.2508 1364 82.0272C1364 82.0272 1364 82.0272 1364 82.0272L1373.93 111.659Z" fill="#108AFA"/>
<path fill-rule="evenodd" clip-rule="evenodd" d="M926.306 53.8956C926.358 38.1717 913.653 25.383 897.929 25.3313C882.205 25.2797 869.416 37.9846 869.365 53.7085L926.306 53.8956Z" fill="#9302FC"/>
<line x1="893.631" y1="64.9111" x2="895.198" y2="44.8941" stroke="#108AFA" stroke-width="5"/>
<path d="M74.7749 752.196L67.4448 749.5L65.1326 759.495L55.3204 756.5L52.5752 766.745L43.1961 763.5L40.9999 771.696" stroke="#FFB800" stroke-width="3"/>
<path d="M879.687 418.937L878.122 426.588L888.351 427.373L886.863 437.524L897.405 438.7L895.605 448.46L904.038 449.4" stroke="#9302FC" stroke-width="3"/>
<path fill-rule="evenodd" clip-rule="evenodd" d="M18.8786 1359C8.45231 1377.06 14.6397 1400.15 32.6987 1410.58C50.7576 1421 73.8494 1414.82 84.2757 1396.76L18.8786 1359Z" fill="#108AFA"/>
<line x1="63.0656" y1="1367.41" x2="48.0656" y2="1389.41" stroke="#FFB800" stroke-width="5"/>
<path fill-rule="evenodd" clip-rule="evenodd" d="M1412.57 1045.6C1412.57 1030.83 1400.6 1018.86 1385.84 1018.86C1371.07 1018.86 1359.1 1030.83 1359.1 1045.6L1412.57 1045.6Z" fill="#108AFA"/>
<line x1="1381.77" y1="1056.03" x2="1383.18" y2="1037.23" stroke="#FFB800" stroke-width="5"/>
</svg>
