<svg width="1440" height="1532" viewBox="0 0 1440 1532" fill="none" xmlns="http://www.w3.org/2000/svg">
<circle cx="914.808" cy="934.192" r="5.19231" fill="#BEBEBE"/>
<circle cx="914.808" cy="954.962" r="5.19231" fill="#BEBEBE"/>
<circle cx="914.808" cy="1038.04" r="5.19231" fill="#BEBEBE"/>
<circle cx="914.808" cy="1058.81" r="5.19231" fill="#BEBEBE"/>
<circle cx="891.961" cy="954.962" r="5.19231" fill="#BEBEBE"/>
<circle cx="891.961" cy="1038.04" r="5.19231" fill="#BEBEBE"/>
<circle cx="891.961" cy="975.731" r="5.19231" fill="#BEBEBE"/>
<circle cx="891.961" cy="1017.27" r="5.19231" fill="#BEBEBE"/>
<circle cx="871.192" cy="975.731" r="5.19231" fill="#BEBEBE"/>
<circle cx="871.192" cy="996.5" r="5.19231" fill="#BEBEBE"/>
<circle cx="871.192" cy="1017.27" r="5.19231" fill="#BEBEBE"/>
<circle cx="937.654" cy="934.192" r="5.19231" fill="#BEBEBE"/>
<circle cx="937.654" cy="1058.81" r="5.19231" fill="#BEBEBE"/>
<circle cx="960.5" cy="934.192" r="5.19231" fill="#BEBEBE"/>
<circle cx="960.5" cy="954.962" r="5.19231" fill="#BEBEBE"/>
<circle cx="960.5" cy="1038.04" r="5.19231" fill="#BEBEBE"/>
<circle cx="960.5" cy="1058.81" r="5.19231" fill="#BEBEBE"/>
<circle cx="983.346" cy="954.962" r="5.19231" fill="#BEBEBE"/>
<circle cx="983.346" cy="1038.04" r="5.19231" fill="#BEBEBE"/>
<circle cx="983.346" cy="975.731" r="5.19231" fill="#BEBEBE"/>
<circle cx="983.346" cy="1017.27" r="5.19231" fill="#BEBEBE"/>
<circle cx="1006.19" cy="975.731" r="5.19231" fill="#BEBEBE"/>
<circle cx="1006.19" cy="996.5" r="5.19231" fill="#BEBEBE"/>
<circle cx="1006.19" cy="1017.27" r="5.19231" fill="#BEBEBE"/>
<circle cx="6.79288" cy="597.893" r="1.89286" fill="#BEBEBE"/>
<circle cx="6.79288" cy="605.464" r="1.89286" fill="#BEBEBE"/>
<circle cx="6.79288" cy="635.75" r="1.89286" fill="#BEBEBE"/>
<circle cx="6.79288" cy="643.321" r="1.89286" fill="#BEBEBE"/>
<circle cx="-1.53573" cy="605.464" r="1.89286" fill="#BEBEBE"/>
<circle cx="-1.53573" cy="635.75" r="1.89286" fill="#BEBEBE"/>
<circle cx="-1.53573" cy="613.036" r="1.89286" fill="#BEBEBE"/>
<circle cx="-1.53573" cy="628.179" r="1.89286" fill="#BEBEBE"/>
<circle cx="15.1214" cy="597.893" r="1.89286" fill="#BEBEBE"/>
<circle cx="15.1214" cy="643.321" r="1.89286" fill="#BEBEBE"/>
<circle cx="23.45" cy="597.893" r="1.89286" fill="#BEBEBE"/>
<circle cx="23.45" cy="605.464" r="1.89286" fill="#BEBEBE"/>
<circle cx="23.45" cy="635.75" r="1.89286" fill="#BEBEBE"/>
<circle cx="23.45" cy="643.321" r="1.89286" fill="#BEBEBE"/>
<circle cx="31.7786" cy="605.464" r="1.89286" fill="#BEBEBE"/>
<circle cx="31.7786" cy="635.75" r="1.89286" fill="#BEBEBE"/>
<circle cx="31.7786" cy="613.036" r="1.89286" fill="#BEBEBE"/>
<circle cx="31.7786" cy="628.179" r="1.89286" fill="#BEBEBE"/>
<circle cx="40.1072" cy="613.036" r="1.89286" fill="#BEBEBE"/>
<circle cx="40.1072" cy="620.607" r="1.89286" fill="#BEBEBE"/>
<circle cx="40.1072" cy="628.179" r="1.89286" fill="#BEBEBE"/>
<circle cx="879.793" cy="1494.89" r="1.89286" fill="#BEBEBE"/>
<circle cx="879.793" cy="1502.46" r="1.89286" fill="#BEBEBE"/>
<circle cx="879.793" cy="1532.75" r="1.89286" fill="#BEBEBE"/>
<circle cx="871.464" cy="1502.46" r="1.89286" fill="#BEBEBE"/>
<circle cx="871.464" cy="1532.75" r="1.89286" fill="#BEBEBE"/>
<circle cx="871.464" cy="1510.04" r="1.89286" fill="#BEBEBE"/>
<circle cx="871.464" cy="1525.18" r="1.89286" fill="#BEBEBE"/>
<circle cx="863.893" cy="1510.04" r="1.89286" fill="#BEBEBE"/>
<circle cx="863.893" cy="1517.61" r="1.89286" fill="#BEBEBE"/>
<circle cx="863.893" cy="1525.18" r="1.89286" fill="#BEBEBE"/>
<circle cx="888.121" cy="1494.89" r="1.89286" fill="#BEBEBE"/>
<circle cx="896.45" cy="1494.89" r="1.89286" fill="#BEBEBE"/>
<circle cx="896.45" cy="1502.46" r="1.89286" fill="#BEBEBE"/>
<circle cx="896.45" cy="1532.75" r="1.89286" fill="#BEBEBE"/>
<circle cx="904.779" cy="1502.46" r="1.89286" fill="#BEBEBE"/>
<circle cx="904.779" cy="1532.75" r="1.89286" fill="#BEBEBE"/>
<circle cx="904.779" cy="1510.04" r="1.89286" fill="#BEBEBE"/>
<circle cx="904.779" cy="1525.18" r="1.89286" fill="#BEBEBE"/>
<circle cx="913.107" cy="1510.04" r="1.89286" fill="#BEBEBE"/>
<circle cx="913.107" cy="1517.61" r="1.89286" fill="#BEBEBE"/>
<circle cx="913.107" cy="1525.18" r="1.89286" fill="#BEBEBE"/>
<circle cx="1245.02" cy="1388.19" r="4.1923" fill="#BEBEBE"/>
<circle cx="1245.02" cy="1404.96" r="4.1923" fill="#BEBEBE"/>
<circle cx="1245.02" cy="1472.04" r="4.1923" fill="#BEBEBE"/>
<circle cx="1245.02" cy="1488.81" r="4.1923" fill="#BEBEBE"/>
<circle cx="1226.58" cy="1404.96" r="4.1923" fill="#BEBEBE"/>
<circle cx="1226.58" cy="1472.04" r="4.1923" fill="#BEBEBE"/>
<circle cx="1226.58" cy="1421.73" r="4.1923" fill="#BEBEBE"/>
<circle cx="1226.58" cy="1455.27" r="4.1923" fill="#BEBEBE"/>
<circle cx="1209.81" cy="1421.73" r="4.1923" fill="#BEBEBE"/>
<circle cx="1209.81" cy="1438.5" r="4.1923" fill="#BEBEBE"/>
<circle cx="1209.81" cy="1455.27" r="4.1923" fill="#BEBEBE"/>
<circle cx="1263.47" cy="1388.19" r="4.1923" fill="#BEBEBE"/>
<circle cx="1263.47" cy="1488.81" r="4.1923" fill="#BEBEBE"/>
<circle cx="1281.92" cy="1388.19" r="4.1923" fill="#BEBEBE"/>
<circle cx="1281.92" cy="1404.96" r="4.1923" fill="#BEBEBE"/>
<circle cx="1281.92" cy="1472.04" r="4.1923" fill="#BEBEBE"/>
<circle cx="1281.92" cy="1488.81" r="4.1923" fill="#BEBEBE"/>
<circle cx="1300.36" cy="1404.96" r="4.1923" fill="#BEBEBE"/>
<circle cx="1300.36" cy="1472.04" r="4.1923" fill="#BEBEBE"/>
<circle cx="1300.36" cy="1421.73" r="4.1923" fill="#BEBEBE"/>
<circle cx="1300.36" cy="1455.27" r="4.1923" fill="#BEBEBE"/>
<circle cx="1318.81" cy="1421.73" r="4.1923" fill="#BEBEBE"/>
<circle cx="1318.81" cy="1438.5" r="4.1923" fill="#BEBEBE"/>
<circle cx="1318.81" cy="1455.27" r="4.1923" fill="#BEBEBE"/>
<circle cx="1405.2" cy="385.769" r="8.76923" fill="#BEBEBE"/>
<circle cx="1405.2" cy="420.846" r="8.76923" fill="#BEBEBE"/>
<circle cx="1405.2" cy="561.154" r="8.76923" fill="#BEBEBE"/>
<circle cx="1405.2" cy="596.231" r="8.76923" fill="#BEBEBE"/>
<circle cx="1366.62" cy="420.846" r="8.76923" fill="#BEBEBE"/>
<circle cx="1366.62" cy="561.154" r="8.76923" fill="#BEBEBE"/>
<circle cx="1366.62" cy="455.923" r="8.76923" fill="#BEBEBE"/>
<circle cx="1366.62" cy="526.077" r="8.76923" fill="#BEBEBE"/>
<circle cx="1331.54" cy="455.923" r="8.76923" fill="#BEBEBE"/>
<circle cx="1331.54" cy="491" r="8.76923" fill="#BEBEBE"/>
<circle cx="1331.54" cy="526.077" r="8.76923" fill="#BEBEBE"/>
<circle cx="1443.78" cy="385.769" r="8.76923" fill="#BEBEBE"/>
<circle cx="1443.78" cy="596.231" r="8.76923" fill="#BEBEBE"/>
<circle cx="30.0077" cy="475.192" r="3.19231" fill="#BEBEBE"/>
<circle cx="30.0077" cy="487.961" r="3.19231" fill="#BEBEBE"/>
<circle cx="30.0077" cy="539.039" r="3.19231" fill="#BEBEBE"/>
<circle cx="30.0077" cy="551.808" r="3.19231" fill="#BEBEBE"/>
<circle cx="15.9615" cy="487.961" r="3.19231" fill="#BEBEBE"/>
<circle cx="15.9615" cy="539.039" r="3.19231" fill="#BEBEBE"/>
<circle cx="15.9615" cy="500.731" r="3.19231" fill="#BEBEBE"/>
<circle cx="15.9615" cy="526.269" r="3.19231" fill="#BEBEBE"/>
<circle cx="3.19231" cy="500.731" r="3.19231" fill="#BEBEBE"/>
<circle cx="3.19231" cy="513.5" r="3.19231" fill="#BEBEBE"/>
<circle cx="3.19231" cy="526.269" r="3.19231" fill="#BEBEBE"/>
<circle cx="44.0538" cy="475.192" r="3.19231" fill="#BEBEBE"/>
<circle cx="44.0538" cy="551.808" r="3.19231" fill="#BEBEBE"/>
<circle cx="58.1001" cy="475.192" r="3.19231" fill="#BEBEBE"/>
<circle cx="58.1001" cy="487.961" r="3.19231" fill="#BEBEBE"/>
<circle cx="58.1001" cy="539.039" r="3.19231" fill="#BEBEBE"/>
<circle cx="58.1001" cy="551.808" r="3.19231" fill="#BEBEBE"/>
<circle cx="72.1462" cy="487.961" r="3.19231" fill="#BEBEBE"/>
<circle cx="72.1462" cy="539.039" r="3.19231" fill="#BEBEBE"/>
<circle cx="72.1462" cy="500.731" r="3.19231" fill="#BEBEBE"/>
<circle cx="72.1462" cy="526.269" r="3.19231" fill="#BEBEBE"/>
<circle cx="86.1923" cy="500.731" r="3.19231" fill="#BEBEBE"/>
<circle cx="86.1923" cy="513.5" r="3.19231" fill="#BEBEBE"/>
<circle cx="86.1923" cy="526.269" r="3.19231" fill="#BEBEBE"/>
<circle cx="877.008" cy="3.19231" r="3.19231" fill="#BEBEBE"/>
<circle cx="877.008" cy="15.9615" r="3.19231" fill="#BEBEBE"/>
<circle cx="877.008" cy="67.0385" r="3.19231" fill="#BEBEBE"/>
<circle cx="877.008" cy="79.8077" r="3.19231" fill="#BEBEBE"/>
<circle cx="862.961" cy="15.9615" r="3.19231" fill="#BEBEBE"/>
<circle cx="862.961" cy="67.0385" r="3.19231" fill="#BEBEBE"/>
<circle cx="862.961" cy="28.7308" r="3.19231" fill="#BEBEBE"/>
<circle cx="862.961" cy="54.2692" r="3.19231" fill="#BEBEBE"/>
<circle cx="850.192" cy="28.7308" r="3.19231" fill="#BEBEBE"/>
<circle cx="850.192" cy="41.5" r="3.19231" fill="#BEBEBE"/>
<circle cx="850.192" cy="54.2692" r="3.19231" fill="#BEBEBE"/>
<circle cx="891.054" cy="3.19231" r="3.19231" fill="#BEBEBE"/>
<circle cx="891.054" cy="79.8077" r="3.19231" fill="#BEBEBE"/>
<circle cx="905.1" cy="3.19231" r="3.19231" fill="#BEBEBE"/>
<circle cx="905.1" cy="15.9615" r="3.19231" fill="#BEBEBE"/>
<circle cx="905.1" cy="67.0385" r="3.19231" fill="#BEBEBE"/>
<circle cx="905.1" cy="79.8077" r="3.19231" fill="#BEBEBE"/>
<circle cx="919.146" cy="15.9615" r="3.19231" fill="#BEBEBE"/>
<circle cx="919.146" cy="67.0385" r="3.19231" fill="#BEBEBE"/>
<circle cx="919.146" cy="28.7308" r="3.19231" fill="#BEBEBE"/>
<circle cx="919.146" cy="54.2692" r="3.19231" fill="#BEBEBE"/>
<circle cx="933.192" cy="28.7308" r="3.19231" fill="#BEBEBE"/>
<circle cx="933.192" cy="41.5" r="3.19231" fill="#BEBEBE"/>
<circle cx="933.192" cy="54.2692" r="3.19231" fill="#BEBEBE"/>
</svg>
