<svg width="1440" height="868" viewBox="0 0 1440 868" fill="none" xmlns="http://www.w3.org/2000/svg">
<circle cx="767.929" cy="325.929" r="3.92857" fill="#BEBEBE"/>
<circle cx="767.929" cy="341.643" r="3.92857" fill="#BEBEBE"/>
<circle cx="767.929" cy="404.5" r="3.92857" fill="#BEBEBE"/>
<circle cx="767.929" cy="420.214" r="3.92857" fill="#BEBEBE"/>
<circle cx="750.643" cy="341.643" r="3.92857" fill="#BEBEBE"/>
<circle cx="750.643" cy="404.5" r="3.92857" fill="#BEBEBE"/>
<circle cx="750.643" cy="357.357" r="3.92857" fill="#BEBEBE"/>
<circle cx="750.643" cy="388.786" r="3.92857" fill="#BEBEBE"/>
<circle cx="734.929" cy="357.357" r="3.92857" fill="#BEBEBE"/>
<circle cx="734.929" cy="373.071" r="3.92857" fill="#BEBEBE"/>
<circle cx="734.929" cy="388.786" r="3.92857" fill="#BEBEBE"/>
<circle cx="785.214" cy="325.929" r="3.92857" fill="#BEBEBE"/>
<circle cx="785.214" cy="420.214" r="3.92857" fill="#BEBEBE"/>
<circle cx="802.5" cy="325.929" r="3.92857" fill="#BEBEBE"/>
<circle cx="802.5" cy="341.643" r="3.92857" fill="#BEBEBE"/>
<circle cx="802.5" cy="404.5" r="3.92857" fill="#BEBEBE"/>
<circle cx="802.5" cy="420.214" r="3.92857" fill="#BEBEBE"/>
<circle cx="819.786" cy="341.643" r="3.92857" fill="#BEBEBE"/>
<circle cx="819.786" cy="404.5" r="3.92857" fill="#BEBEBE"/>
<circle cx="819.786" cy="357.357" r="3.92857" fill="#BEBEBE"/>
<circle cx="819.786" cy="388.786" r="3.92857" fill="#BEBEBE"/>
<circle cx="837.071" cy="357.357" r="3.92857" fill="#BEBEBE"/>
<circle cx="837.071" cy="373.071" r="3.92857" fill="#BEBEBE"/>
<circle cx="837.071" cy="388.786" r="3.92857" fill="#BEBEBE"/>
<circle cx="15.3462" cy="641.962" r="5.19231" fill="#BEBEBE"/>
<circle cx="15.3462" cy="725.039" r="5.19231" fill="#BEBEBE"/>
<circle cx="15.3462" cy="662.731" r="5.19231" fill="#BEBEBE"/>
<circle cx="15.3462" cy="704.269" r="5.19231" fill="#BEBEBE"/>
<circle cx="38.1923" cy="662.731" r="5.19231" fill="#BEBEBE"/>
<circle cx="38.1923" cy="683.5" r="5.19231" fill="#BEBEBE"/>
<circle cx="38.1923" cy="704.269" r="5.19231" fill="#BEBEBE"/>
<circle cx="1305.88" cy="774.179" r="3.17857" fill="#BEBEBE"/>
<circle cx="1305.88" cy="786.893" r="3.17857" fill="#BEBEBE"/>
<circle cx="1305.88" cy="837.75" r="3.17857" fill="#BEBEBE"/>
<circle cx="1305.88" cy="850.464" r="3.17857" fill="#BEBEBE"/>
<circle cx="1291.89" cy="786.893" r="3.17857" fill="#BEBEBE"/>
<circle cx="1291.89" cy="837.75" r="3.17857" fill="#BEBEBE"/>
<circle cx="1291.89" cy="799.607" r="3.17857" fill="#BEBEBE"/>
<circle cx="1291.89" cy="825.036" r="3.17857" fill="#BEBEBE"/>
<circle cx="1279.18" cy="799.607" r="3.17857" fill="#BEBEBE"/>
<circle cx="1279.18" cy="812.321" r="3.17857" fill="#BEBEBE"/>
<circle cx="1279.18" cy="825.036" r="3.17857" fill="#BEBEBE"/>
<circle cx="1319.86" cy="774.179" r="3.17857" fill="#BEBEBE"/>
<circle cx="1319.86" cy="850.464" r="3.17857" fill="#BEBEBE"/>
<circle cx="1333.85" cy="774.179" r="3.17857" fill="#BEBEBE"/>
<circle cx="1333.85" cy="786.893" r="3.17857" fill="#BEBEBE"/>
<circle cx="1333.85" cy="837.75" r="3.17857" fill="#BEBEBE"/>
<circle cx="1333.85" cy="850.464" r="3.17857" fill="#BEBEBE"/>
<circle cx="1347.84" cy="786.893" r="3.17857" fill="#BEBEBE"/>
<circle cx="1347.84" cy="837.75" r="3.17857" fill="#BEBEBE"/>
<circle cx="1347.84" cy="799.607" r="3.17857" fill="#BEBEBE"/>
<circle cx="1347.84" cy="825.036" r="3.17857" fill="#BEBEBE"/>
<circle cx="1361.82" cy="799.607" r="3.17857" fill="#BEBEBE"/>
<circle cx="1361.82" cy="812.321" r="3.17857" fill="#BEBEBE"/>
<circle cx="1361.82" cy="825.036" r="3.17857" fill="#BEBEBE"/>
<circle cx="1365.55" cy="51.6538" r="6.65385" fill="#BEBEBE"/>
<circle cx="1365.55" cy="78.2692" r="6.65385" fill="#BEBEBE"/>
<circle cx="1365.55" cy="184.731" r="6.65385" fill="#BEBEBE"/>
<circle cx="1365.55" cy="211.346" r="6.65385" fill="#BEBEBE"/>
<circle cx="1336.27" cy="78.2692" r="6.65385" fill="#BEBEBE"/>
<circle cx="1336.27" cy="184.731" r="6.65385" fill="#BEBEBE"/>
<circle cx="1336.27" cy="104.885" r="6.65385" fill="#BEBEBE"/>
<circle cx="1336.27" cy="158.115" r="6.65385" fill="#BEBEBE"/>
<circle cx="1309.65" cy="104.885" r="6.65385" fill="#BEBEBE"/>
<circle cx="1309.65" cy="131.5" r="6.65385" fill="#BEBEBE"/>
<circle cx="1309.65" cy="158.115" r="6.65385" fill="#BEBEBE"/>
<circle cx="1394.82" cy="51.6538" r="6.65385" fill="#BEBEBE"/>
<circle cx="1394.82" cy="211.346" r="6.65385" fill="#BEBEBE"/>
<circle cx="1424.1" cy="51.6538" r="6.65385" fill="#BEBEBE"/>
<circle cx="1424.1" cy="78.2692" r="6.65385" fill="#BEBEBE"/>
<circle cx="1424.1" cy="184.731" r="6.65385" fill="#BEBEBE"/>
<circle cx="1424.1" cy="211.346" r="6.65385" fill="#BEBEBE"/>
</svg>
