<svg width="1350" height="758" viewBox="0 0 1350 758" fill="none" xmlns="http://www.w3.org/2000/svg">
<path d="M1323.69 0.936577L1322.12 8.58847L1332.35 9.3734L1330.86 19.5241L1341.4 20.6996L1339.6 30.4597L1348.04 31.4001" stroke="#9302FC" stroke-width="3"/>
<path d="M619.512 603.949L612.182 601.252L609.87 611.248L600.058 608.252L597.313 618.498L587.933 615.252L585.737 623.449" stroke="#FFB800" stroke-width="3"/>
<path fill-rule="evenodd" clip-rule="evenodd" d="M649.332 369.297C664.52 373.367 680.132 364.353 684.201 349.165C688.271 333.977 679.258 318.365 664.069 314.296L649.332 369.297Z" fill="#9302FC"/>
<line x1="647.035" y1="334.892" x2="665.987" y2="341.523" stroke="#108AFA" stroke-width="5"/>
<path fill-rule="evenodd" clip-rule="evenodd" d="M9.92645 757.659C9.92648 757.659 9.92651 757.659 9.92655 757.659C18.0052 754.883 22.3321 745.999 19.591 737.816C16.8498 729.633 8.07863 725.251 -2.89228e-05 728.027C-6.31949e-05 728.027 -9.74669e-05 728.027 -0.000131739 728.027L9.92645 757.659Z" fill="#108AFA"/>
</svg>
